<svg id="Capa_1" data-name="Capa 1" xmlns="http://www.w3.org/2000/svg" viewBox="0 0 25.77 16.55"><defs><style>.cls-1{fill:#2bcc5a;}</style></defs><title>iconografía</title><path class="cls-1" d="M13,7.77h0c-.05,0-5.11-1.09-7.48-.12a.15.15,0,0,1-.13,0,.12.12,0,0,1,0-.12A1.22,1.22,0,0,0,5,6.68,2.38,2.38,0,0,0,3.25,6a.14.14,0,0,1-.13-.12,29.4,29.4,0,0,1-.27-3.44C3,1.86,3.71.4,7,.1A117.06,117.06,0,0,1,21.25.48c.57.14,2.07.52,2,3l-.09,2.28a.13.13,0,0,1-.13.12.11.11,0,0,1-.12-.06,2.16,2.16,0,0,0-1.52.51l0,0c-.46.64-.55.86-.54.93a.11.11,0,0,1,0,.12c-.07.09-.15.1-1.9,0-1.08,0-2.44-.1-3.58-.08-1.76,0-2.09.23-2.15.31A.12.12,0,0,1,13,7.77ZM8.29,7A25.46,25.46,0,0,1,13,7.5c.54-.45,3-.39,5.89-.27.73,0,1.42.06,1.66,0a3.18,3.18,0,0,1,.58-1l0,0a2.32,2.32,0,0,1,1.73-.63L23,3.5C23.05,1.2,21.74.87,21.19.73A115.91,115.91,0,0,0,7,.36C3.9.65,3.24,2,3.1,2.54a27.36,27.36,0,0,0,.27,3.24,2.61,2.61,0,0,1,1.85.73,1.47,1.47,0,0,1,.37.83A8.37,8.37,0,0,1,8.29,7Z"/><path class="cls-1" d="M2.89,14.84a1.29,1.29,0,0,1-.82-.31,2.5,2.5,0,0,1-.69-1.94,14.35,14.35,0,0,0-.1-1.76A1.94,1.94,0,0,1,.05,9.72a2.28,2.28,0,0,1,.73-2c1.88-2.17,2.43-2,2.56-1.88a.12.12,0,0,1,0,.18.14.14,0,0,1-.17,0S2.64,5.94,1,7.87C.39,8.56.16,9.16.31,9.65a1.6,1.6,0,0,0,1,.91h.07c.15,0,.2,0,.26,2a2.29,2.29,0,0,0,.6,1.75,1,1,0,0,0,.7.24H21.53s1.56.07,2-.52a.66.66,0,0,0,.09-.62v0l.05-2.81a.12.12,0,0,1,.11-.12s1.33-.15,1.64-.88c.18-.41,0-.95-.49-1.6l0,0s-.8-1.76-2-2A.13.13,0,0,1,23,5.66c1.25.31,2,2,2.14,2.18.55.72.73,1.34.51,1.84-.31.74-1.38,1-1.73,1l0,2.68a.89.89,0,0,1-.15.83c-.55.7-2.17.63-2.24.62H2.89ZM3.17,6Zm0,0Z"/><path class="cls-1" d="M4.19,14.83h0a.13.13,0,0,1-.09-.16S5.22,10.5,4,9,2,7.69.91,7.91a.13.13,0,0,1-.15-.1.13.13,0,0,1,.1-.16c1.07-.21,2-.4,3.34,1.21s.17,5.7.12,5.88A.13.13,0,0,1,4.19,14.83Z"/><path class="cls-1" d="M22.64,16.55a2,2,0,0,1-.58-.09c-.72-.2-.95-1.58-1-1.74s-.56-4.3,0-5.35a3.61,3.61,0,0,1,2-2,2.47,2.47,0,0,1,2,.38A.13.13,0,0,1,25,8a2.29,2.29,0,0,0-1.77-.36A3.35,3.35,0,0,0,21.33,9.5c-.53,1,0,5.14,0,5.19.06.37.31,1.39.78,1.52a1.57,1.57,0,0,0,.78.05,3.22,3.22,0,0,1-.41-1.59.13.13,0,1,1,.25.07,3.6,3.6,0,0,0,.46,1.54.13.13,0,0,1-.05.17A1.09,1.09,0,0,1,22.64,16.55Z"/><path class="cls-1" d="M4.72,11.81a.13.13,0,0,1,0-.26L21,11.42h0a.13.13,0,1,1,0,.26l-16.25.13Z"/><path class="cls-1" d="M4.47,9.76h0a.13.13,0,0,1-.06-.18l1-2.1a.13.13,0,0,1,.24.12l-1,2.1A.14.14,0,0,1,4.47,9.76Z"/><path class="cls-1" d="M12.89,9.56l-.08,0a.14.14,0,0,1,0-.19c.1-.13.34-.44,4.46-.28,1.64.06,3.26.18,3.8.22l-.51-1.88a.13.13,0,1,1,.25-.07l.56,2.06a.11.11,0,0,1,0,.12.12.12,0,0,1-.11,0s-2-.15-4-.23c-3.7-.14-4.18.1-4.24.18A.11.11,0,0,1,12.89,9.56Z"/><path class="cls-1" d="M4.57,9.56a.13.13,0,0,1-.13-.11.13.13,0,0,1,.11-.15c.27,0,6.63-.74,8.21-.05a.12.12,0,0,1,.07.17.13.13,0,0,1-.17.07c-1.52-.67-8,.07-8.08.07Z"/><path class="cls-1" d="M12.89,11.68a.12.12,0,0,1-.13-.12,16.57,16.57,0,0,1,.14-3.95.13.13,0,0,1,.25.07A16.82,16.82,0,0,0,13,11.54a.13.13,0,0,1-.12.14Z"/><path class="cls-1" d="M3.13,16.47a3,3,0,0,1-.63-.08.11.11,0,0,1-.08-.07.13.13,0,0,1,0-.12,5.16,5.16,0,0,0,.41-1.51A.13.13,0,0,1,3,14.57a.13.13,0,0,1,.12.15,5.71,5.71,0,0,1-.37,1.45A1.44,1.44,0,0,0,3.9,16a1.26,1.26,0,0,0,.16-1.23.13.13,0,0,1,.26-.06,1.47,1.47,0,0,1-.24,1.48A1.36,1.36,0,0,1,3.13,16.47Z"/></svg>