<svg id="Capa_1" data-name="Capa 1" xmlns="http://www.w3.org/2000/svg" viewBox="0 0 25.68 28.9"><defs><style>.cls-1{fill:#2bcc5a;}</style></defs><title>iconografía</title><path class="cls-1" d="M18.14,28.9H7.89a.17.17,0,0,1-.13-.07.15.15,0,0,1,0-.16,5.64,5.64,0,0,1,4.16-2.34V17.87L.05,6.07A.16.16,0,0,1,0,5.9a.16.16,0,0,1,.14-.1h0l25.37.1a.15.15,0,0,1,.14.1.14.14,0,0,1,0,.16L14.21,17.86l-.09,8.48c.77.2,4.08,1.12,4.18,2.4a.16.16,0,0,1-.05.11A.13.13,0,0,1,18.14,28.9Zm-10-.3H18c-.36-.91-3-1.74-4-2a.16.16,0,0,1-.12-.15l.1-8.66a.15.15,0,0,1,0-.11L25.16,6.21.53,6.11,12.18,17.69a.15.15,0,0,1,0,.11v8.66a.14.14,0,0,1-.13.15A5.77,5.77,0,0,0,8.19,28.6Zm3.88-2.14Z"/><path class="cls-1" d="M18.75,6.24a.15.15,0,0,1-.14-.09.14.14,0,0,1,0-.17s.81-.85,1.62-1.67C21.94,2.6,22,2.6,22.08,2.6h0a.21.21,0,0,1,.11,0l.58.59a.15.15,0,0,1,0,.22L19.85,6.07a.12.12,0,0,1-.08,0l-1,.13Zm1-.28Zm2.32-3c-.39.34-1.84,1.82-2.91,2.93l.52-.07,2.76-2.48Z"/><path class="cls-1" d="M23.28,3.52A1.76,1.76,0,1,1,25,1.76,1.76,1.76,0,0,1,23.28,3.52Zm0-3.21a1.45,1.45,0,1,0,1.45,1.45A1.45,1.45,0,0,0,23.28.31Z"/></svg>