<svg id="Capa_1" data-name="Capa 1" xmlns="http://www.w3.org/2000/svg" viewBox="0 0 25.77 25.46"><defs><style>.cls-1{fill:#2bcc5a;}</style></defs><title>iconografía</title><path class="cls-1" d="M22.81,25.46H3a3,3,0,0,1-3-3V9.79a3,3,0,0,1,3-3H22.81a3,3,0,0,1,3,3V22.5A3,3,0,0,1,22.81,25.46ZM3,7.2A2.59,2.59,0,0,0,.37,9.79V22.5A2.6,2.6,0,0,0,3,25.1H22.81a2.6,2.6,0,0,0,2.59-2.6V9.79A2.59,2.59,0,0,0,22.81,7.2Z"/><path class="cls-1" d="M15.68,22.57H5.49a3.12,3.12,0,0,1-3.11-3.12v-6.1a3.12,3.12,0,0,1,3.11-3.12H15.68a3.12,3.12,0,0,1,3.12,3.12v6.1A3.12,3.12,0,0,1,15.68,22.57ZM5.49,10.6a2.76,2.76,0,0,0-2.75,2.75v6.1A2.75,2.75,0,0,0,5.49,22.2H15.68a2.76,2.76,0,0,0,2.76-2.75v-6.1a2.76,2.76,0,0,0-2.76-2.75Z"/><path class="cls-1" d="M22.92,15.11a1.18,1.18,0,1,1,1.18-1.18A1.18,1.18,0,0,1,22.92,15.11Zm0-2a.82.82,0,0,0,0,1.63.82.82,0,1,0,0-1.63Z"/><path class="cls-1" d="M22.92,19.79a1.19,1.19,0,1,1,1.18-1.18A1.18,1.18,0,0,1,22.92,19.79Zm0-2a.82.82,0,1,0,.82.82A.82.82,0,0,0,22.92,17.79Z"/><path class="cls-1" d="M12.43,7.2a.16.16,0,0,1-.13-.06l-4-3.94a.18.18,0,0,1,.26-.26l4,3.94a.19.19,0,0,1,0,.26A.19.19,0,0,1,12.43,7.2Z"/><path class="cls-1" d="M13.28,7.2a.18.18,0,0,1-.13-.06.19.19,0,0,1,0-.26L19.8.06a.18.18,0,0,1,.26,0,.19.19,0,0,1,0,.26L13.41,7.14A.18.18,0,0,1,13.28,7.2Z"/></svg>