<svg id="Capa_1" data-name="Capa 1" xmlns="http://www.w3.org/2000/svg" viewBox="0 0 25.77 27.63"><defs><style>.cls-1{fill:#2bcc5a;}</style></defs><title>iconografía</title><g id="_Grupo_" data-name="&lt;Grupo&gt;"><g id="_Grupo_2" data-name="&lt;Grupo&gt;"><path class="cls-1" d="M.16,17.92H.1a.15.15,0,0,1-.1-.15V15.09A.21.21,0,0,1,0,15L13.24.45A1.5,1.5,0,0,1,14.39,0a1.56,1.56,0,0,1,1.1.56L21.18,7.2a.13.13,0,0,1,0,.1V10a.17.17,0,0,1-.11.16.16.16,0,0,1-.17-.05l-5.7-6.64A1.23,1.23,0,0,0,14.37,3a1.21,1.21,0,0,0-.9.34L.28,17.87A.13.13,0,0,1,.16,17.92Zm.16-2.77v2.19L13.24,3.12a1.5,1.5,0,0,1,1.15-.45,1.53,1.53,0,0,1,1.1.57l5.41,6.3V7.36L15.24.77a1.19,1.19,0,0,0-.87-.44,1.17,1.17,0,0,0-.9.34Z"/></g><g id="_Grupo_3" data-name="&lt;Grupo&gt;"><path class="cls-1" d="M23.92,27.63h-9a1.11,1.11,0,0,1-1.11-1.11V20.39A.79.79,0,0,0,13,19.6H9.38a.79.79,0,0,0-.79.79v6.13a1.11,1.11,0,0,1-1.11,1.11H4.79a1.11,1.11,0,0,1-1.11-1.11V14.08a.16.16,0,1,1,.32,0V26.52a.8.8,0,0,0,.79.79H7.48a.79.79,0,0,0,.79-.79V20.39a1.11,1.11,0,0,1,1.11-1.11H13a1.11,1.11,0,0,1,1.11,1.11v6.13a.79.79,0,0,0,.79.79h9a.79.79,0,0,0,.79-.79V21.11a.17.17,0,0,1,.17-.16.16.16,0,0,1,.16.16v5.41A1.12,1.12,0,0,1,23.92,27.63Z"/></g></g><g id="_Grupo_4" data-name="&lt;Grupo&gt;"><g id="_Grupo_5" data-name="&lt;Grupo&gt;"><path class="cls-1" d="M23.56,20.81h-.8a.2.2,0,0,1-.2-.2v-1.1a3.72,3.72,0,0,1-1.86-.59.18.18,0,0,1-.07-.22l.3-.86a.2.2,0,0,1,.13-.12.21.21,0,0,1,.17,0,3.16,3.16,0,0,0,1.72.52c.79,0,1.32-.42,1.32-1.05s-.38-.95-1.32-1.33c-1.15-.45-2.22-1.06-2.22-2.39a2.25,2.25,0,0,1,1.92-2.21V10.16a.2.2,0,0,1,.2-.2h.79a.2.2,0,0,1,.2.2v1a3.53,3.53,0,0,1,1.55.47.2.2,0,0,1,.09.24l-.32.84a.17.17,0,0,1-.12.11.18.18,0,0,1-.16,0,2.94,2.94,0,0,0-1.51-.41c-.85,0-1.15.49-1.15.9s.33.8,1.46,1.27c1.47.6,2.09,1.35,2.09,2.51a2.39,2.39,0,0,1-2,2.33v1.16A.2.2,0,0,1,23.56,20.81Zm-.6-.4h.4V19.28a.19.19,0,0,1,.17-.19,2,2,0,0,0,1.84-2c0-1-.53-1.61-1.84-2.15-1.13-.46-1.71-.84-1.71-1.63,0-.64.48-1.29,1.55-1.29a3.25,3.25,0,0,1,1.5.35l.18-.47a3.34,3.34,0,0,0-1.42-.34.19.19,0,0,1-.19-.2v-1h-.39v1.08a.2.2,0,0,1-.17.2,1.89,1.89,0,0,0-1.75,1.85c0,.9.55,1.46,2,2,.77.31,1.56.76,1.56,1.7A1.53,1.53,0,0,1,23,18.66a3.71,3.71,0,0,1-1.73-.45l-.17.47a3.7,3.7,0,0,0,1.71.44.21.21,0,0,1,.2.2Z"/></g></g></svg>