<svg id="Capa_1" data-name="Capa 1" xmlns="http://www.w3.org/2000/svg" viewBox="0 0 25.77 24.89"><defs><style>.cls-1{fill:#2bcc5a;}</style></defs><title>iconografía</title><g id="_Grupo_" data-name="&lt;Grupo&gt;"><path class="cls-1" d="M.19,16H.12A.2.2,0,0,1,0,15.78V13.91a.19.19,0,0,1,.05-.13L12.17.43a1.42,1.42,0,0,1,2.13.1L25.73,13.72a.2.2,0,0,1,0,.13v1.87a.2.2,0,0,1-.12.18.18.18,0,0,1-.21-.05L14,2.65a1,1,0,0,0-.76-.39,1,1,0,0,0-.8.3L.33,15.91A.2.2,0,0,1,.19,16Zm.19-2v1.31l11.79-13a1.41,1.41,0,0,1,2.13.11l11.09,12.8V13.92L14,.78a1.06,1.06,0,0,0-.76-.4,1.08,1.08,0,0,0-.8.31Z"/></g><g id="_Grupo_2" data-name="&lt;Grupo&gt;"><path class="cls-1" d="M22,24.89H13.76a1.06,1.06,0,0,1-1.06-1.06V18.2a.69.69,0,0,0-.69-.69H8.66A.69.69,0,0,0,8,18.2v5.63a1.07,1.07,0,0,1-1.06,1.06H4.45a1.07,1.07,0,0,1-1.07-1.06V12.4a.2.2,0,0,1,.19-.19.19.19,0,0,1,.19.19V23.83a.69.69,0,0,0,.69.68H6.92a.69.69,0,0,0,.68-.68V18.2a1.07,1.07,0,0,1,1.06-1.07H12a1.07,1.07,0,0,1,1.07,1.07v5.63a.68.68,0,0,0,.68.68H22a.69.69,0,0,0,.68-.68V13.06a.2.2,0,0,1,.19-.19.19.19,0,0,1,.19.19V23.83A1.07,1.07,0,0,1,22,24.89Z"/></g><g id="_Grupo_3" data-name="&lt;Grupo&gt;"><path class="cls-1" d="M8.68,10.49a.25.25,0,0,1-.14,0,.26.26,0,0,1-.09-.25l.69-3a.24.24,0,1,1,.46.11L9,9.77l2.18-1.3a.24.24,0,0,1,.33.08.23.23,0,0,1-.09.32L8.81,10.46A.28.28,0,0,1,8.68,10.49Z"/></g><g id="_Grupo_4" data-name="&lt;Grupo&gt;"><path class="cls-1" d="M13.12,12h0a.23.23,0,0,1-.21-.15L11.77,9a.24.24,0,1,1,.44-.18l.93,2.37,1.07-2.3a.25.25,0,0,1,.32-.12.24.24,0,0,1,.11.32l-1.31,2.8A.23.23,0,0,1,13.12,12Z"/></g><g id="_Grupo_5" data-name="&lt;Grupo&gt;"><path class="cls-1" d="M17.81,10.44l-.12,0L15,8.81A.23.23,0,0,1,15,8.49a.24.24,0,0,1,.33-.08l2.18,1.31-.55-2.49a.24.24,0,0,1,.46-.1l.67,3a.23.23,0,0,1-.23.29Z"/></g><g id="_Grupo_6" data-name="&lt;Grupo&gt;"><path class="cls-1" d="M13.25,9a6,6,0,0,1-1.42-.17A3.8,3.8,0,0,1,9,6.43a.19.19,0,0,1,.13-.23.19.19,0,0,1,.24.13h0A3.42,3.42,0,0,0,11.92,8.5a5,5,0,0,0,4-.62c.35-.34,1.13-1.38,1.14-1.39a.19.19,0,0,1,.27,0,.2.2,0,0,1,0,.27s-.81,1.07-1.19,1.43A4.78,4.78,0,0,1,13.25,9Z"/></g></svg>