<svg id="Capa_1" data-name="Capa 1" xmlns="http://www.w3.org/2000/svg" viewBox="0 0 21.14 28.81"><defs><style>.cls-1{fill:#2bcc5a;}</style></defs><title>iconografía</title><path class="cls-1" d="M5.94,28.81c-.68,0-1.2-.45-1.51-1.3a4.91,4.91,0,0,1-.24-1.24h0s.12-3.07.18-6.15c0-1.81,0-3.28,0-4.37a8.65,8.65,0,0,0-.15-2.2C2.87,13,.53,11.88.18,10.64A20.91,20.91,0,0,1,.23,5.05C.34,4,.48,3,.62,2.18.85.88,1,.73,1,.68A.17.17,0,0,1,1.15.6a.15.15,0,0,1,.09.28A6.73,6.73,0,0,0,.92,2.25C.78,3.08.64,4.09.53,5.1a18.27,18.27,0,0,0-.05,5.45c.15.53.79,1.13,1.87,1.75a17.08,17.08,0,0,0,2,1h0c.12.05.19.18.24.74,0,.35.05.86.07,1.5,0,1.07,0,2.56,0,4.41C4.62,23,4.5,26.09,4.5,26.26s.14,2.24,1.44,2.24,1.79-1.77,1.84-2V13.41l.09,0a8.44,8.44,0,0,0,1.63-1,4,4,0,0,0,1.66-2.84A59.34,59.34,0,0,0,10.07.78.16.16,0,0,1,10.19.6a.15.15,0,0,1,.18.12,58.07,58.07,0,0,1,1.1,8.81,3.47,3.47,0,0,1-.59,1.79,6,6,0,0,1-1.2,1.29,8.23,8.23,0,0,1-1.6,1v13a4.09,4.09,0,0,1-.45,1.09A2,2,0,0,1,5.94,28.81Z"/><path class="cls-1" d="M4.14,9.38A.16.16,0,0,1,4,9.22V.15A.15.15,0,0,1,4.14,0,.16.16,0,0,1,4.3.15V9.22A.16.16,0,0,1,4.14,9.38Z"/><path class="cls-1" d="M7.63,9.38a.16.16,0,0,1-.15-.16V.15A.15.15,0,0,1,7.63,0a.16.16,0,0,1,.16.15V9.22A.16.16,0,0,1,7.63,9.38Z"/><path class="cls-1" d="M18.89,28.81a1.68,1.68,0,0,1-1.38-.57,2.69,2.69,0,0,1-.37-2V15.65a17.85,17.85,0,0,1-2-3.6c-.11-.27-.2-.52-.28-.74a4.74,4.74,0,0,1-.27-1.94,15.52,15.52,0,0,1,.93-4.58,7.78,7.78,0,0,1,2-3A5.67,5.67,0,0,1,19.87.45,4.11,4.11,0,0,1,21,.3h.15V26.46a2.85,2.85,0,0,1-.28,1.16A2,2,0,0,1,18.89,28.81Zm-4-19.35a4.23,4.23,0,0,0,.25,1.73,17.68,17.68,0,0,0,2.27,4.32l0,0V26.28h0a2.44,2.44,0,0,0,.3,1.75,1.36,1.36,0,0,0,1.14.46,1.73,1.73,0,0,0,1.69-1,2.61,2.61,0,0,0,.25-1V.61a5,5,0,0,0-.9.14A5.42,5.42,0,0,0,17.68,2C16.06,3.52,15.12,6,14.9,9.46Z"/></svg>