<svg id="Capa_1" data-name="Capa 1" xmlns="http://www.w3.org/2000/svg" viewBox="0 0 17.95 25"><defs><style>.cls-1{fill:#2bcc5a;}</style></defs><title>iconografía</title><g id="_Grupo_" data-name="&lt;Grupo&gt;"><path class="cls-1" d="M17.69,25H7c-.14,0-.26-.06-.26-.13V.13S6.8,0,6.88,0a.42.42,0,0,1,.27,0L17.83,3.1c.08,0,.12.06.12.1V24.87C18,24.94,17.83,25,17.69,25ZM7.28,24.74H17.42V3.28L7.28.35Z"/></g><g id="_Grupo_2" data-name="&lt;Grupo&gt;"><g id="_Grupo_3" data-name="&lt;Grupo&gt;"><polygon class="cls-1" points="15.37 19.57 9.33 19.35 9.33 20.24 15.37 20.46 15.37 19.57"/></g><g id="_Grupo_4" data-name="&lt;Grupo&gt;"><polygon class="cls-1" points="15.37 17.13 9.33 16.7 9.33 17.59 15.37 18.02 15.37 17.13"/></g><g id="_Grupo_5" data-name="&lt;Grupo&gt;"><polygon class="cls-1" points="15.37 14.69 9.33 14.04 9.33 14.94 15.37 15.59 15.37 14.69"/></g><g id="_Grupo_6" data-name="&lt;Grupo&gt;"><polygon class="cls-1" points="15.37 12.26 9.33 11.39 9.33 12.28 15.37 13.15 15.37 12.26"/></g><g id="_Grupo_7" data-name="&lt;Grupo&gt;"><polygon class="cls-1" points="15.37 9.82 9.33 8.74 9.33 9.63 15.37 10.71 15.37 9.82"/></g><g id="_Grupo_8" data-name="&lt;Grupo&gt;"><polygon class="cls-1" points="15.37 7.38 9.33 6.08 9.33 6.97 15.37 8.27 15.37 7.38"/></g><g id="_Grupo_9" data-name="&lt;Grupo&gt;"><polygon class="cls-1" points="15.37 4.94 9.33 3.43 9.33 4.32 15.37 5.83 15.37 4.94"/></g></g><g id="_Grupo_10" data-name="&lt;Grupo&gt;"><path class="cls-1" d="M7,25H.27C.12,25,0,24.94,0,24.87V.68C0,.62.09.57.22.56L7,0a.73.73,0,0,1,.22,0,.11.11,0,0,1,.09.1V24.87C7.28,24.94,7.16,25,7,25ZM.53,24.74H6.75V.28L.53.79Z"/></g></svg>