<svg id="Capa_1" data-name="Capa 1" xmlns="http://www.w3.org/2000/svg" viewBox="0 0 21.45 28.09"><defs><style>.cls-1{fill:#2bcc5a;}</style></defs><title>iconografía</title><path class="cls-1" d="M6.73,16.27a4.15,4.15,0,0,1-1.9-.3,9.82,9.82,0,0,1-2.42-2.09A9.94,9.94,0,0,1,0,7.37a7.27,7.27,0,0,1,2.37-5.9A6.58,6.58,0,0,1,6.5,0a7,7,0,0,1,7.05,7.43,9.9,9.9,0,0,1-2.61,6.47,12.26,12.26,0,0,1-2.61,2.27.16.16,0,0,1-.09,0C8.11,16.21,7.45,16.27,6.73,16.27ZM6.5.38c-.62,0-6.12.2-6.12,7A9.93,9.93,0,0,0,5,15.64H5a8.17,8.17,0,0,0,3.13.18c.46-.29,5-3.34,5-8.4A6.59,6.59,0,0,0,6.5.38Z"/><path class="cls-1" d="M7.46,18H5.72a.2.2,0,0,1-.19-.19V16.28a.2.2,0,0,1,.19-.19H7.46a.2.2,0,0,1,.19.19v1.55A.2.2,0,0,1,7.46,18Zm-1.55-.38H7.27V16.47H5.91Z"/><path class="cls-1" d="M6,24.55H6a.19.19,0,0,1-.14-.23s.38-1.53.49-2.06a6.69,6.69,0,0,0-.43-2.44,3.19,3.19,0,0,1,.45-2.08.2.2,0,0,1,.26-.07.18.18,0,0,1,.07.26,2.82,2.82,0,0,0-.42,1.77,6.59,6.59,0,0,1,.44,2.64c-.1.54-.47,2-.49,2.07A.19.19,0,0,1,6,24.55Z"/><path class="cls-1" d="M4.82,13.93a.11.11,0,0,1-.08,0C3.69,13.43,2.23,10.33,2.07,10a.19.19,0,0,1,.09-.26.19.19,0,0,1,.25.1c.43.92,1.71,3.39,2.49,3.75a.2.2,0,0,1,.09.25A.18.18,0,0,1,4.82,13.93Z"/><path class="cls-1" d="M11.46,9.18h0A.18.18,0,0,1,11.27,9s.44-4-.64-5.07a.2.2,0,0,1,0-.27.19.19,0,0,1,.27,0c1.21,1.25.76,5.21.74,5.38A.18.18,0,0,1,11.46,9.18Z"/><path class="cls-1" d="M9.46,3.08A.22.22,0,0,1,9.31,3a2,2,0,0,0-1-.7.18.18,0,0,1-.16-.21.19.19,0,0,1,.21-.17,2.57,2.57,0,0,1,1.25.83.2.2,0,0,1,0,.27A.17.17,0,0,1,9.46,3.08Z"/><path class="cls-1" d="M15.39,21.06h-2c-1.78,0-4.49-4.63-4.8-5.15a.19.19,0,0,1,.07-.26.18.18,0,0,1,.26.07c.8,1.38,3.15,5,4.47,5h1.57a8.1,8.1,0,0,0,.9,0,10,10,0,0,0,5.23-8.48c.11-5-2.87-5.93-4.14-6.31a2.49,2.49,0,0,1-.32-.1,8,8,0,0,0-3.2.07.19.19,0,0,1-.23-.14.2.2,0,0,1,.15-.23,8,8,0,0,1,3.4-.06l.31.1c1.24.37,4.53,1.35,4.41,6.68-.13,5.71-5,8.8-5.58,8.85Z"/><path class="cls-1" d="M12.87,18.65l-.09,0c-1.35-.72-2.64-3.56-2.7-3.69a.19.19,0,0,1,.1-.25.19.19,0,0,1,.25.1s1.3,2.85,2.53,3.5a.19.19,0,0,1,.08.26A.21.21,0,0,1,12.87,18.65Z"/><path class="cls-1" d="M19.26,14.22h0a.19.19,0,0,1-.15-.23s.76-3.77-.54-5.2a.19.19,0,0,1,0-.27.2.2,0,0,1,.27,0c1.42,1.58.66,5.38.62,5.54A.19.19,0,0,1,19.26,14.22Z"/><path class="cls-1" d="M17.44,7.91a.2.2,0,0,1-.14-.06c-.25-.28-.76-.7-1.05-.63A.2.2,0,0,1,16,7.07a.21.21,0,0,1,.15-.23c.6-.13,1.33.66,1.41.75a.19.19,0,0,1,0,.27A.21.21,0,0,1,17.44,7.91Z"/><path class="cls-1" d="M15.56,22.58H13.74a.2.2,0,0,1-.19-.19V20.87a.19.19,0,0,1,.19-.19.18.18,0,0,1,.19.19V22.2h1.44V20.87a.18.18,0,0,1,.19-.19.19.19,0,0,1,.19.19v1.52A.2.2,0,0,1,15.56,22.58Z"/><path class="cls-1" d="M14.64,28.09h0a.19.19,0,0,1-.15-.22A3.58,3.58,0,0,0,14,26.58v0a1.65,1.65,0,0,1,0-2,3.76,3.76,0,0,0,.43-2.18.19.19,0,0,1,.38,0,4.15,4.15,0,0,1-.51,2.46,1.26,1.26,0,0,0,0,1.54v0a3.72,3.72,0,0,1,.51,1.54A.18.18,0,0,1,14.64,28.09Z"/></svg>