<svg viewBox="0 0 25.87 33.28" xmlns="http://www.w3.org/2000/svg"><g fill="#2bcc5a"><path d="m25.72 31.71h-25.58a.15.15 0 0 1 -.14-.15v-31.42a.14.14 0 0 1 .14-.14h25.58a.15.15 0 0 1 .15.14v31.42a.15.15 0 0 1 -.15.15zm-25.43-.29h25.29v-31.13h-25.29z"/><path d="m13 28.2a9.92 9.92 0 1 1 9.92-9.91 9.93 9.93 0 0 1 -9.92 9.91zm0-19.54a9.63 9.63 0 1 0 9.63 9.63 9.64 9.64 0 0 0 -9.63-9.63z"/><path d="m13 24.74a6.23 6.23 0 1 1 6.23-6.22 6.23 6.23 0 0 1 -6.23 6.22zm0-12.16a5.94 5.94 0 1 0 6 5.94 5.94 5.94 0 0 0 -6-5.94z"/><path d="m25.72 6.4h-25.58a.15.15 0 0 1 -.14-.15.14.14 0 0 1 .14-.14h25.58a.15.15 0 0 1 .15.14.15.15 0 0 1 -.15.15z"/><path d="m7.68 6.4a.15.15 0 0 1 -.14-.15v-2.67h-5.45v2.67a.15.15 0 0 1 -.09.15.15.15 0 0 1 -.15-.15v-2.82a.15.15 0 0 1 .15-.14h5.68a.14.14 0 0 1 .14.14v2.82a.15.15 0 0 1 -.14.15z"/><path d="m10.12 6.4a.15.15 0 0 1 -.12-.15v-6.11a.14.14 0 0 1 .12-.14.15.15 0 0 1 .15.14v6.11a.15.15 0 0 1 -.15.15z"/><path d="m22.6 4.43a1.58 1.58 0 1 1 1.58-1.58 1.58 1.58 0 0 1 -1.58 1.58zm0-2.87a1.29 1.29 0 1 0 1.29 1.29 1.3 1.3 0 0 0 -1.29-1.29z"/><path d="m2.86 33.28h-.86a.15.15 0 0 1 -.15-.15v-1.57a.15.15 0 0 1 .15-.14h.91a.14.14 0 0 1 .14.14v1.57a.15.15 0 0 1 -.19.15zm-.77-.28h.62v-1.29h-.62z"/><path d="m23.87 33.28h-.87a.15.15 0 0 1 -.15-.15v-1.57a.15.15 0 0 1 .15-.14h.9a.15.15 0 0 1 .15.14v1.57a.15.15 0 0 1 -.18.15zm-.76-.28h.62v-1.29h-.62z"/></g></svg>