<svg id="Capa_1" data-name="Capa 1" xmlns="http://www.w3.org/2000/svg" viewBox="0 0 21.43 26.96"><defs><style>.cls-1{fill:#2bcc5a;}</style></defs><title>iconografía</title><path class="cls-1" d="M.24,26.53A.24.24,0,0,1,0,26.29V18.37a3.52,3.52,0,0,1,.79-2.62,1.33,1.33,0,0,1,.9-.41H5c0-5.8.08-14.32,0-15a.21.21,0,0,1,0-.19A.23.23,0,0,1,5.32,0c.18,0,.19.2.2.39s0,.28,0,.5c0,.4,0,1,0,1.74,0,1.28,0,3.05,0,5.28,0,3.79,0,7.63,0,7.66v.24H1.68a.9.9,0,0,0-.58.28,3.14,3.14,0,0,0-.63,2.27v7.92A.23.23,0,0,1,.24,26.53Z"/><path class="cls-1" d="M8.4,15.9h0c-1.4,0-3.13-.08-3.15-.08A.25.25,0,0,1,5,15.57a.24.24,0,0,1,.25-.22s1.74.06,3.14.08a.24.24,0,0,1,0,.47Z"/><rect class="cls-1" x="2.54" y="20.92" width="0.47" height="5.79" rx="0.24" ry="0.24"/><path class="cls-1" d="M5.35,26.68a.23.23,0,0,1-.23-.24V21.2a.24.24,0,1,1,.47,0v5.24A.24.24,0,0,1,5.35,26.68Z"/><path class="cls-1" d="M7.94,26.62a.24.24,0,0,1-.24-.24V21.25A.24.24,0,0,1,7.94,21a.23.23,0,0,1,.23.24v5.13A.23.23,0,0,1,7.94,26.62Z"/><path class="cls-1" d="M8.68,21.4H.24a.24.24,0,0,1,0-.48H8.68a.24.24,0,1,1,0,.48Z"/><path class="cls-1" d="M20.17,27H8.74L8,13.06a.24.24,0,0,1-.21-.23.24.24,0,0,1,.24-.24H21.43Zm-11-.47H19.73l1.18-13.43H8.51Z"/><path class="cls-1" d="M14.76,16.84a3.83,3.83,0,0,1-3.62-4,.23.23,0,0,1,.23-.24.24.24,0,0,1,.24.24,3.37,3.37,0,0,0,3.15,3.54,3.36,3.36,0,0,0,3.14-3.54.24.24,0,1,1,.48,0A3.84,3.84,0,0,1,14.76,16.84Z"/><path class="cls-1" d="M10.36,11.22A1.85,1.85,0,0,1,8.61,9.29a1.85,1.85,0,0,1,1.75-1.93,1.85,1.85,0,0,1,1.76,1.93A1.86,1.86,0,0,1,10.36,11.22Zm0-3.39A1.37,1.37,0,0,0,9.09,9.29a1.37,1.37,0,0,0,1.27,1.45,1.37,1.37,0,0,0,1.28-1.45A1.37,1.37,0,0,0,10.36,7.83Z"/><path class="cls-1" d="M14,7.43a1.32,1.32,0,0,1-1.27-1.38,1.27,1.27,0,1,1,2.53,0A1.32,1.32,0,0,1,14,7.43Zm0-2.28a.85.85,0,0,0-.79.9.79.79,0,1,0,1.57,0A.85.85,0,0,0,14,5.15Z"/><path class="cls-1" d="M18.63,6.47a1.48,1.48,0,0,1-1.4-1.54,1.41,1.41,0,1,1,2.8,0A1.48,1.48,0,0,1,18.63,6.47Zm0-2.6a1,1,0,0,0-.92,1.06.93.93,0,1,0,1.84,0A1,1,0,0,0,18.63,3.87Z"/><path class="cls-1" d="M17.82,13.06a.23.23,0,0,1-.24-.23,2.13,2.13,0,0,0-2-2.25,2.13,2.13,0,0,0-2,2.25.24.24,0,0,1-.48,0,2.61,2.61,0,0,1,2.46-2.72,2.61,2.61,0,0,1,2.47,2.72A.23.23,0,0,1,17.82,13.06Z"/><path class="cls-1" d="M21,12.87a.23.23,0,0,1-.23-.24A2.5,2.5,0,0,0,18.41,10a2.5,2.5,0,0,0-2.33,2.63.24.24,0,1,1-.47,0,3,3,0,0,1,2.8-3.1,3,3,0,0,1,2.81,3.1A.24.24,0,0,1,21,12.87Z"/></svg>