<svg id="Capa_1" data-name="Capa 1" xmlns="http://www.w3.org/2000/svg" viewBox="0 0 13.84 23.29"><defs><style>.cls-1{fill:#2bcc5a;}</style></defs><title>iconografía</title><path class="cls-1" d="M1.62,23.29a.17.17,0,0,1-.11,0A.19.19,0,0,1,1.44,23l3.64-9.61L.13,11.5A.21.21,0,0,1,0,11.36a.19.19,0,0,1,0-.18L10.33.06a.21.21,0,0,1,.24,0,.2.2,0,0,1,.1.22L8.5,10.37l5.18,1.08a.2.2,0,0,1,.15.14.21.21,0,0,1-.05.2l-12,11.44A.2.2,0,0,1,1.62,23.29ZM.54,11.23l4.87,1.88a.2.2,0,0,1,.11.26l-3.41,9L13.24,11.76l-5-1a.2.2,0,0,1-.12-.08.21.21,0,0,1,0-.15L10.14.86Z"/></svg>