<svg id="Capa_1" data-name="Capa 1" xmlns="http://www.w3.org/2000/svg" viewBox="0 0 25.97 20.18"><defs><style>.cls-1{fill:#2bcc5a;}</style></defs><title>iconografía</title><path class="cls-1" d="M23.32,20.18H2.51V8a.07.07,0,0,1,.14,0V20H23.18V8a.07.07,0,1,1,.14,0Z"/><path class="cls-1" d="M10.61,20.18a.07.07,0,0,1-.07-.07V6.78a.08.08,0,0,1,.07-.08.09.09,0,0,1,.08.08V20.11A.08.08,0,0,1,10.61,20.18Z"/><path class="cls-1" d="M25.89,5.6H.07a.07.07,0,1,1,0-.14H25.89a.07.07,0,1,1,0,.14Z"/><path class="cls-1" d="M2.58,8.09a2.49,2.49,0,0,1-1-.21A2.73,2.73,0,0,1,.77,7.3,2.57,2.57,0,0,1,0,5.53a.07.07,0,0,1,.07-.07.07.07,0,0,1,.07.07A2.48,2.48,0,0,0,2.58,8,2.43,2.43,0,0,0,5,5.53a.07.07,0,1,1,.14,0A2.56,2.56,0,0,1,2.58,8.09Z"/><path class="cls-1" d="M7.64,8.09A2.56,2.56,0,0,1,5.08,5.53a.07.07,0,0,1,.14,0,2.42,2.42,0,0,0,4.84,0,.07.07,0,1,1,.14,0A2.56,2.56,0,0,1,7.64,8.09Z"/><path class="cls-1" d="M12.74,8.09a2.56,2.56,0,0,1-2.56-2.56.07.07,0,0,1,.07-.07.08.08,0,0,1,.08.07,2.42,2.42,0,1,0,4.83,0,.07.07,0,0,1,.14,0,2.56,2.56,0,0,1-2.56,2.56Z"/><path class="cls-1" d="M17.89,8.09a2.56,2.56,0,0,1-2.56-2.56.07.07,0,0,1,.07-.07.08.08,0,0,1,.08.07,2.42,2.42,0,1,0,4.83,0,.07.07,0,0,1,.14,0,2.56,2.56,0,0,1-2.56,2.56Z"/><path class="cls-1" d="M23,8.09a2.56,2.56,0,0,1-2.56-2.56.07.07,0,0,1,.07-.07.08.08,0,0,1,.08.07,2.42,2.42,0,1,0,4.83,0,.07.07,0,0,1,.14,0A2.56,2.56,0,0,1,23,8.09Z"/><path class="cls-1" d="M.07,5.6H0a.08.08,0,0,1,0-.1L2.53,0H23.29L26,5.5a.07.07,0,0,1,0,.1.07.07,0,0,1-.09,0L23.2.14H2.62L.14,5.56A.07.07,0,0,1,.07,5.6Z"/><path class="cls-1" d="M21.47,15.42H12.29V9.17h9.18Zm-9-.14h8.88v-6H12.44Z"/><path class="cls-1" d="M16.88,12a.05.05,0,0,1-.05,0,.07.07,0,0,1,0-.1l1-1a.09.09,0,0,1,.1,0,.08.08,0,0,1,0,.11l-1,1A.05.05,0,0,1,16.88,12Z"/><path class="cls-1" d="M17.07,13.36s0,0-.05,0a.07.07,0,0,1,0-.1l2.51-2.51a.07.07,0,0,1,.1.1l-2.51,2.51S17.09,13.36,17.07,13.36Z"/><path class="cls-1" d="M18.32,13.54l-.05,0a.07.07,0,0,1,0-.1l1.21-1.21a.08.08,0,0,1,.11,0,.09.09,0,0,1,0,.1l-1.21,1.21Z"/></svg>