<svg id="Capa_1" data-name="Capa 1" xmlns="http://www.w3.org/2000/svg" viewBox="0 0 25.77 22.84"><defs><style>.cls-1{fill:#2bcc5a;}</style></defs><title>iconografía</title><path class="cls-1" d="M23.69,22.84H19.75a.18.18,0,0,1-.18-.18V18H5.92v4.63a.18.18,0,0,1-.18.18H2.38a.18.18,0,0,1-.18-.18V18h-2A.18.18,0,0,1,0,17.84V9.6a.19.19,0,0,1,.05-.13.18.18,0,0,1,.13-.06H3.76L5.7.15A.19.19,0,0,1,5.88,0H20.33a.18.18,0,0,1,.18.14l2,9.06h3.07a.18.18,0,0,1,.18.18v8.46a.18.18,0,0,1-.18.19H23.87v4.63A.18.18,0,0,1,23.69,22.84Zm-3.76-.36h3.58V17.84a.18.18,0,0,1,.18-.18h1.72V9.56h-3a.18.18,0,0,1-.18-.14l-2-9H6L4.09,9.64a.19.19,0,0,1-.18.14H.37v7.88h2a.18.18,0,0,1,.18.18v4.64h3V17.84a.19.19,0,0,1,.19-.18h14a.18.18,0,0,1,.18.18Z"/><path class="cls-1" d="M6.47,15.66a2.21,2.21,0,1,1,2.21-2.21A2.21,2.21,0,0,1,6.47,15.66Zm0-4.05a1.84,1.84,0,1,0,1.84,1.84A1.84,1.84,0,0,0,6.47,11.61Z"/><path class="cls-1" d="M20.92,15.66a2.21,2.21,0,1,1,2.21-2.21A2.21,2.21,0,0,1,20.92,15.66Zm0-4.05a1.84,1.84,0,1,0,1.84,1.84A1.84,1.84,0,0,0,20.92,11.61Z"/><path class="cls-1" d="M16,12.26H10.41a.18.18,0,0,1,0-.36H16a.18.18,0,0,1,0,.36Z"/><path class="cls-1" d="M15,14.57H11.39a.18.18,0,0,1-.18-.19.18.18,0,0,1,.18-.18H15a.19.19,0,1,1,0,.37Z"/><path class="cls-1" d="M19.46,8.54H6.72a.19.19,0,0,1-.14-.07.16.16,0,0,1,0-.16l1.77-6.1a.17.17,0,0,1,.17-.13l9.69,0a.18.18,0,0,1,.18.14l1.28,6.06a.17.17,0,0,1,0,.15A.16.16,0,0,1,19.46,8.54ZM7,8.17H19.23L18,2.48l-9.4,0Z"/></svg>