<svg id="Capa_1" data-name="Capa 1" xmlns="http://www.w3.org/2000/svg" viewBox="0 0 26.25 22.42"><defs><style>.cls-1{fill:#2bcc5a;}</style></defs><title>iconografía</title><path class="cls-1" d="M24.26,22.42h-4V17.54H18.22v4.88h-4V17.54H12.08v4.88H7.86V17.54H5.77v4.88H1.68V17.54H0V15H1.68V8.55l-.15,0H0V5.7H1.68V2.06L3.73,0l2,2V5.67H7.89V2.1L10,0l2.08,2.08V5.67h2.07V2.1L16.21,0l2,2V5.67h2.1V2.1l2-2,2,2V5.67h1.92V8.56h-2v6.33h2v2.54h-2Zm-3.69-.27H24v-5h2v-2H24V8.3h2V5.93H24.06V2.13L22.37.44,20.61,2.2V5.93H18V2.15L16.21.39,14.4,2.2V5.93H11.8V2.19L10,.37,8.16,2.2V5.93H5.49V2.15L3.73.39,2,2.17V6H.26v2.3H1.55l.4.05v7H.26v2H2v4.87H5.51V17.28H8.12v4.87h3.7V17.28h2.61v4.87H18V17.28h2.61Z"/><rect class="cls-1" x="5.5" y="5.8" width="0.26" height="11.86" transform="matrix(1, 0, 0, 1, -0.02, 0.01)"/><rect class="cls-1" x="2.08" y="11.59" width="11.85" height="0.26" transform="translate(-3.74 19.7) rotate(-89.83)"/><rect class="cls-1" x="11.81" y="5.8" width="0.26" height="11.85" transform="translate(-0.02 0.02) rotate(-0.08)"/><rect class="cls-1" x="14.15" y="5.8" width="0.26" height="11.85" transform="translate(-0.03 0.04) rotate(-0.17)"/><rect class="cls-1" x="12.17" y="11.59" width="11.85" height="0.26" transform="translate(6.35 29.81) rotate(-89.91)"/><rect class="cls-1" x="14.53" y="11.59" width="11.85" height="0.26" transform="translate(8.67 32.15) rotate(-89.83)"/><rect class="cls-1" x="23.99" y="15.02" width="0.26" height="2.28"/><rect class="cls-1" x="5.64" y="15.01" width="2.35" height="0.26"/><rect class="cls-1" x="11.93" y="15.01" width="2.35" height="0.26"/><rect class="cls-1" x="18.11" y="15.01" width="2.33" height="0.26"/><rect class="cls-1" x="5.62" y="8.14" width="2.4" height="0.26"/><rect class="cls-1" x="11.93" y="8.14" width="2.33" height="0.26"/><rect class="cls-1" x="18.09" y="8.14" width="2.39" height="0.26"/><rect class="cls-1" x="1.68" y="5.67" width="0.26" height="2.91"/><rect class="cls-1" x="1.68" y="14.65" width="0.26" height="2.91"/><rect class="cls-1" x="22.71" y="7" width="2.91" height="0.26" transform="translate(16.51 31.13) rotate(-88.76)"/><rect class="cls-1" x="23.99" y="14.65" width="0.26" height="2.91"/></svg>