<svg id="Capa_1" data-name="Capa 1" xmlns="http://www.w3.org/2000/svg" viewBox="0 0 22.88 17.64"><defs><style>.cls-1{fill:#2bcc5a;}</style></defs><title>iconografía</title><g id="_Grupo_" data-name="&lt;Grupo&gt;"><g id="_Grupo_2" data-name="&lt;Grupo&gt;"><g id="_Grupo_3" data-name="&lt;Grupo&gt;"><path class="cls-1" d="M14.54,8.32a3.63,3.63,0,0,1-3.21-2.17L11,6.4h0c-.29.16-1.06.61-1.18.7a.25.25,0,0,1-.17,0c-.21,0-.44-.35-.51-.45a.19.19,0,0,1,0-.07V5.51h-1l-.75.69a.11.11,0,0,1-.17,0l-1-.88-.93.88a.15.15,0,0,1-.09,0H4.36a.14.14,0,0,1-.1,0l-.82-1-.76.56a.11.11,0,0,1-.08,0H1.7a.15.15,0,0,1-.09,0L0,4a.15.15,0,0,1,0-.1.11.11,0,0,1,.05-.09l1.28-.94.08,0h8a5.78,5.78,0,0,1,0-.83A.48.48,0,0,1,10,1.63a.09.09,0,0,1,.07,0l.94.85h.18A3.65,3.65,0,0,1,14.36,0a3.94,3.94,0,0,1,3.8,4,3.93,3.93,0,0,1-3.5,4.28ZM11.36,5.84a.12.12,0,0,1,.1,0l.08.1V6a3.35,3.35,0,0,0,3.1,2,3.67,3.67,0,0,0,3.24-4A3.66,3.66,0,0,0,14.37.27a3.4,3.4,0,0,0-3,2.43.12.12,0,0,1-.13.08h-.32a.11.11,0,0,1-.08,0l-.94-.85c-.07,0-.2,0-.22.15a6.57,6.57,0,0,0,0,.91.13.13,0,0,1,0,.1.18.18,0,0,1-.1,0H1.45L.33,3.91,1.76,5.49h.8l.83-.62a.13.13,0,0,1,.18,0L4.43,6H5.1l1-.93a.14.14,0,0,1,.18,0l1,.89L8,5.28a.18.18,0,0,1,.09,0H9.23a.13.13,0,0,1,.13.14V6.59a1.09,1.09,0,0,0,.3.29c.19-.13,1.06-.63,1.19-.7l.43-.32Zm-.44.45Z"/></g><g id="_Grupo_4" data-name="&lt;Grupo&gt;"><path class="cls-1" d="M16.2,5a.84.84,0,1,1,0-1.68A.84.84,0,0,1,16.2,5Zm0-1.56a.72.72,0,1,0,.72.72A.73.73,0,0,0,16.2,3.44Z"/></g></g><g id="_Grupo_5" data-name="&lt;Grupo&gt;"><path class="cls-1" d="M17.33,17.64a.1.1,0,0,1-.1-.1c0-.31-.28-7.64-.27-7.85a15.24,15.24,0,0,1,1.16-1.9,16.67,16.67,0,0,1,1.41-1.88.15.15,0,0,1,.11,0,26.84,26.84,0,0,1,2.15,2.54c.39.49.76,1,.81,1s.07.08.11,1.31c0,.66.05,1.56.08,2.69.05,1.92.09,3.91.09,4s-.11.11-.33.13l-.62,0-1.88,0c-1.34,0-2.71,0-2.72,0ZM17.15,9.7c0,.24.17,5.1.27,7.74,2,0,4.8-.06,5.26-.12,0-.83-.16-7.33-.22-7.77-.07-.07-.25-.3-.82-1s-1.79-2.21-2-2.45A31,31,0,0,0,17.15,9.7Zm5.32-.13h0Zm0,0Zm.15-.11Zm-3-3.36Z"/></g><g id="_Grupo_6" data-name="&lt;Grupo&gt;"><path class="cls-1" d="M19.66,7.91A.64.64,0,0,1,19,7.27a.64.64,0,0,1,1.28,0A.64.64,0,0,1,19.66,7.91Zm0-1a.38.38,0,0,0,0,.75.38.38,0,1,0,0-.75Z"/></g><g id="_Grupo_7" data-name="&lt;Grupo&gt;"><path class="cls-1" d="M20.94,15.08H18.55l-.07,0a.11.11,0,0,1,0-.07v-.6a.07.07,0,0,1,0-.05l.93-1.52h0l-.89-1.47s0,0,0,0v-.6a.1.1,0,0,1,.1-.1c.33,0,.89,0,1,0h.34c.11,0,.66,0,1,0a.1.1,0,0,1,.09.1v.6a.09.09,0,0,1,0,0l-.9,1.47h0L21,14.34a.07.07,0,0,1,0,.05V15a.19.19,0,0,1,0,.07Zm-1.12-.19h1v-.48l-.91-1.49,0,0a.09.09,0,0,1,0-.11l.92-1.5v-.48l-.89,0h-.36l-.88,0v.48l.91,1.5a.11.11,0,0,1,0,.11l0,0-.92,1.49v.48h1.18Z"/></g><g id="_Grupo_8" data-name="&lt;Grupo&gt;"><path class="cls-1" d="M19.62,7.31a3.72,3.72,0,0,1-2.29-1.07L17,5.78c-.58-.72-1-1.26-.85-1.53s.71-.33.73-.32a.09.09,0,0,1,.09.1.11.11,0,0,1-.11.09s-.41,0-.54.21.51.93.83,1.32c.15.18.28.35.37.48a3.32,3.32,0,0,0,2.33,1,.09.09,0,0,1,.1.16A.57.57,0,0,1,19.62,7.31Z"/></g><g id="_Grupo_9" data-name="&lt;Grupo&gt;"><path class="cls-1" d="M20.36,6.68a.1.1,0,0,1-.1-.1V6.13A3.62,3.62,0,0,0,19.66,5a4.61,4.61,0,0,0-1.5-.89A.09.09,0,0,1,18.1,4a.1.1,0,0,1,.13-.06,4.59,4.59,0,0,1,1.59.95,3.67,3.67,0,0,1,.63,1.25v.45A.1.1,0,0,1,20.36,6.68Z"/></g></g></svg>