<svg id="Capa_1" data-name="Capa 1" xmlns="http://www.w3.org/2000/svg" viewBox="0 0 28.86 29.02"><defs><style>.cls-1{fill:#fe674c;}</style></defs><title>iconografía</title><path class="cls-1" d="M28.75,6.43h0L.11,6.3A.12.12,0,0,1,0,6.21.11.11,0,0,1,.06,6.1L14.22,0h.09L28.8,6.23a.11.11,0,0,1,.06.12A.1.1,0,0,1,28.75,6.43ZM.62,6.09l27.61.13-14-6Z"/><path class="cls-1" d="M8.38,6.23a.11.11,0,0,1-.08,0,.11.11,0,0,1,0-.15l5.78-6a.11.11,0,0,1,.15,0,.11.11,0,0,1,0,.15l-5.78,6A.11.11,0,0,1,8.38,6.23Z"/><path class="cls-1" d="M20.15,6.23a.11.11,0,0,1-.07,0l-5.89-6a.11.11,0,0,1,0-.15.11.11,0,0,1,.15,0l5.89,6a.11.11,0,0,1,0,.15A.11.11,0,0,1,20.15,6.23Z"/><path class="cls-1" d="M16.76,29h-5a.11.11,0,0,1-.11-.1.11.11,0,0,1,.11-.11h5a.11.11,0,0,1,.11.11A.11.11,0,0,1,16.76,29Z"/><path class="cls-1" d="M13.14,28.73a.11.11,0,0,1-.11-.11V27.3h0s.15-1.28,1.29-1.35V6.26a.11.11,0,1,1,.22,0V26a.11.11,0,0,1-.11.11c-1,0-1.17,1.06-1.18,1.16v1.31A.11.11,0,0,1,13.14,28.73Z"/><path class="cls-1" d="M15.59,28.73a.11.11,0,0,1-.11-.11V27.24c0-.09-.16-1.09-1.05-1.09a.11.11,0,0,1-.11-.11.1.1,0,0,1,.11-.1c1.11,0,1.26,1.27,1.26,1.28h0v1.39A.1.1,0,0,1,15.59,28.73Z"/><path class="cls-1" d="M22.29,29H17.46l-.81-3.6h6.43Zm-4.61-.27h4.39l.68-3.06H17Z"/><path class="cls-1" d="M22.89,25.68H16.83a.83.83,0,0,1-.83-.83v-.57a.83.83,0,0,1,.83-.83h6.06a.84.84,0,0,1,.84.83v.57A.84.84,0,0,1,22.89,25.68Zm-6.06-2a.56.56,0,0,0-.56.56v.57a.56.56,0,0,0,.56.56h6.06a.57.57,0,0,0,.57-.56v-.57a.57.57,0,0,0-.57-.56Z"/><path class="cls-1" d="M19.49,23.61a5.25,5.25,0,0,0-.87-2,4.57,4.57,0,0,1-3.11-1.18c-.65-.84-.43-2.84-.42-2.92v-.1l.1,0a5.5,5.5,0,0,1,3.33.63,2.46,2.46,0,0,1,1,2.9h0a2.69,2.69,0,0,1,.5.88,1.75,1.75,0,0,1,.29-.32v-.05A2.33,2.33,0,0,1,22.07,19a5.58,5.58,0,0,1,3.37.37l.09,0,0,.1c0,.09-.39,2.06-1.25,2.68a4.74,4.74,0,0,1-3.35.28l0,0a1.7,1.7,0,0,0-.64,1.11l-.27,0a2,2,0,0,1,.78-1.32h0l.14,0H21A4.46,4.46,0,0,0,24.1,22a4.77,4.77,0,0,0,1.12-2.4,5.26,5.26,0,0,0-3.09-.3,2,2,0,0,0-1.57,2.11l.1.17-.1.07a2,2,0,0,0-.47.57l-.18.34-.07-.38a2.43,2.43,0,0,0-.5-1L19.18,21l0-.1a2.23,2.23,0,0,0-.83-2.69,5.37,5.37,0,0,0-3-.61,4.75,4.75,0,0,0,.37,2.63,4.32,4.32,0,0,0,2.91,1.07h.11l0,0a5.23,5.23,0,0,1,1,2.19Z"/></svg>