<svg id="Capa_1" data-name="Capa 1" xmlns="http://www.w3.org/2000/svg" viewBox="0 0 25.77 17.37"><defs><style>.cls-1{fill:#2bcc5a;}</style></defs><title>iconografía</title><path class="cls-1" d="M8,15.78,8,9.09,19,9.06l0,6.7Zm.22-6.45,0,6.21,10.44,0V9.3Z"/><path class="cls-1" d="M11.68,17.37l.59-.78.12-1.06h2.4l.06,1.12.61.71Zm.93-1.6-.11.92-.33.44h2.77l-.33-.38,0-1Z"/><path class="cls-1" d="M16.32,3.51H10.67V0h5.65Zm-5.41-.24h5.17v-3H10.91Z"/><path class="cls-1" d="M14.61,4.32H12.45l.36-.48.07-.57H14.2l0,.6Zm-1.68-.24h1.16L14,4l0-.45h-.88L13,3.93Z"/><path class="cls-1" d="M25.77,5H20.12V1.48h5.65Zm-5.41-.24h5.17v-3H20.36Z"/><path class="cls-1" d="M24.06,5.8H21.9l.37-.48.06-.57h1.32l0,.6Zm-1.67-.24h1.15l-.09-.11,0-.46h-.88l-.05.43Z"/><path class="cls-1" d="M5.65,6.05H0V2.54H5.65ZM.24,5.81H5.41v-3H.24Z"/><path class="cls-1" d="M3.94,6.86H1.78l.36-.47.07-.58H3.53l0,.6ZM2.27,6.62H3.42l-.09-.11,0-.46H2.43l-.05.43Z"/><rect class="cls-1" x="13.36" y="5.44" width="0.24" height="2.81" transform="matrix(1, 0, 0, 1, -0.01, 0.03)"/><rect class="cls-1" x="19.21" y="7.33" width="2.81" height="0.24" transform="translate(0.21 15.45) rotate(-41.27)"/><rect class="cls-1" x="5.79" y="6.25" width="0.24" height="2.81" transform="matrix(0.56, -0.83, 0.83, 0.56, -3.74, 8.25)"/></svg>