<svg id="Capa_1" data-name="Capa 1" xmlns="http://www.w3.org/2000/svg" viewBox="0 0 25.77 21.17"><defs><style>.cls-1{fill:#2bcc5a;}</style></defs><title>iconografía</title><path class="cls-1" d="M17.76,16.94,0,10.46,3.61,0,21.46,6.75ZM.49,10.23l17,6.22L21,7,3.84.5Z"/><path class="cls-1" d="M22.06,18l-3.78-3.6,1.87-5.15,5.62-.6Zm-3.34-3.7,3.19,3,3.27-8.23-4.76.51Z"/><path class="cls-1" d="M8.43,16.42H6.83l-.2-3.93,2.06.93ZM7.2,16h.88l.21-2.39L7,13.1Z"/><path class="cls-1" d="M1.62,19.62l.92-2.06,2.92.17V19.4ZM2.79,18l-.56,1.25L5.08,19v-.95Z"/><path class="cls-1" d="M7.66,21.17a2.59,2.59,0,1,1,2.59-2.58A2.59,2.59,0,0,1,7.66,21.17Zm0-4.78a2.2,2.2,0,1,0,2.2,2.2A2.2,2.2,0,0,0,7.66,16.39Z"/></svg>