<svg id="Capa_1" data-name="Capa 1" xmlns="http://www.w3.org/2000/svg" viewBox="0 0 25.77 19.15"><defs><style>.cls-1{fill:#2bcc5a;}</style></defs><title>iconografía</title><path class="cls-1" d="M10.91,19.15h0a8.83,8.83,0,0,1-1.71-.39,12.9,12.9,0,0,1-3.74-1.89A12.24,12.24,0,0,1,1.7,12.4,17.89,17.89,0,0,1,0,4.31V4.06l.24.09S1.5,4.61,3,5.3A15.58,15.58,0,0,1,7.22,8,.18.18,0,1,1,7,8.22C5.28,6.54,1.36,5,.36,4.57c.07,6.76,2.9,10.26,5.29,12a11.94,11.94,0,0,0,5.28,2.21.18.18,0,0,1,.15.19A.16.16,0,0,1,10.91,19.15Z"/><path class="cls-1" d="M14.86,19.15a.17.17,0,0,1-.17-.16.18.18,0,0,1,.16-.19,9.06,9.06,0,0,0,1.65-.38,12.86,12.86,0,0,0,3.64-1.84c2.38-1.76,5.21-5.26,5.28-12-1,.39-4.93,2-6.62,3.65A.18.18,0,1,1,18.55,8,15.58,15.58,0,0,1,22.8,5.3c1.48-.69,2.72-1.15,2.73-1.15l.24-.09v.25a18,18,0,0,1-1.69,8.09,12.36,12.36,0,0,1-3.75,4.47,12.9,12.9,0,0,1-3.74,1.89,8.83,8.83,0,0,1-1.71.39Z"/><path class="cls-1" d="M13.42,18.14a.15.15,0,0,1-.11,0,.19.19,0,0,1,0-.25c3.81-4.8,3.61-9.29,2.77-12.22A15,15,0,0,0,13.41.52a16.48,16.48,0,0,0-3.13,5,10.55,10.55,0,0,0,2.07,11.3.17.17,0,0,1,0,.25.17.17,0,0,1-.25,0A11.52,11.52,0,0,1,9.2,10.82,11.29,11.29,0,0,1,10,5.39a16.34,16.34,0,0,1,2.12-3.81A14.26,14.26,0,0,1,13.3.13L13.43,0l.12.14a10.76,10.76,0,0,1,1.07,1.47,15.06,15.06,0,0,1,1.77,3.92,13,13,0,0,1,.36,5.73,14.94,14.94,0,0,1-3.19,6.81A.16.16,0,0,1,13.42,18.14Z"/></svg>