<svg id="Capa_1" data-name="Capa 1" xmlns="http://www.w3.org/2000/svg" viewBox="0 0 25.77 23.61"><defs><style>.cls-1{fill:#4dc2ee;}</style></defs><title>iconografía</title><path class="cls-1" d="M9.52,21.12c-4.13,0-4.93-.55-5.58-1l-.32-.21c-.89-.51-2.52-5.55-2.7-6.12a.14.14,0,0,1,0-.15.15.15,0,0,1,.14-.05c.11,0,11,1.39,14,.65a54.47,54.47,0,0,1,6.11-1.08c.87-.1,1.7-.19,2.35-.24,1-.08,1.07,0,1.12.06a.14.14,0,0,1,0,.18c-.05.1-.27.7-.49,1.34a47.57,47.57,0,0,1-1.93,4.88c-.88,1.73-3.9,1.73-8.07,1.71-1.1,0-2.24,0-3.46,0ZM1.3,13.93c.71,2.2,1.9,5.38,2.48,5.71l.34.22c.67.46,1.51,1,6.54.93,1.22,0,2.36,0,3.46,0,4.06,0,7,0,7.79-1.54a48.17,48.17,0,0,0,1.91-4.84c.23-.65.35-1,.44-1.21a58,58,0,0,0-9.13,1.36C12.35,15.25,3,14.14,1.3,13.93Zm23.31-.76Z"/><path class="cls-1" d="M6.22,23.6A.54.54,0,0,1,6,23.54a1.09,1.09,0,0,1-.49-1,7.4,7.4,0,0,1,.73-1.69.15.15,0,0,1,.22-.06.16.16,0,0,1,.06.21,6.85,6.85,0,0,0-.69,1.56.78.78,0,0,0,.31.66.45.45,0,0,0,.48-.14,5.34,5.34,0,0,0,1-2.19.16.16,0,1,1,.31.07,5.41,5.41,0,0,1-1.11,2.36A.84.84,0,0,1,6.22,23.6Z"/><path class="cls-1" d="M19.34,23.61h-.19c-.11,0-.28,0-.89-1.39-.29-.63-.54-1.26-.54-1.27a.16.16,0,0,1,.3-.12,11.42,11.42,0,0,0,1.19,2.47A1,1,0,0,0,20,23.1a.41.41,0,0,0,.05-.4,6.94,6.94,0,0,0-1-1.72.15.15,0,0,1,0-.22.17.17,0,0,1,.23,0,7.12,7.12,0,0,1,1,1.83.73.73,0,0,1-.11.7A1.17,1.17,0,0,1,19.34,23.61Z"/><path class="cls-1" d="M1.07,13.9h0c-.24,0-1-.4-1-.87s.27-.58.87-.75a8.82,8.82,0,0,1,2.81.23,36.22,36.22,0,0,0,10.8.38c2.25-.32,4.13-.64,5.64-.9,3.17-.54,4.76-.81,5.29-.28.3.3.41.55.35.79s-.54.53-1.23.72a.16.16,0,0,1-.19-.12.16.16,0,0,1,.11-.19c.28-.08.93-.25,1-.49s-.12-.34-.26-.48c-.42-.42-2.15-.12-5,.37-1.52.26-3.4.58-5.66.89a36.14,36.14,0,0,1-10.89-.38A9.73,9.73,0,0,0,1,12.58c-.41.12-.65.28-.64.42s.58.56.77.59a.16.16,0,0,1,.14.17A.16.16,0,0,1,1.07,13.9Z"/><path class="cls-1" d="M22.92,11.74a.16.16,0,0,1-.16-.16V3.2C22.6,2.89,21.27.32,19.23.32a3.59,3.59,0,0,0-3.86,3.55.16.16,0,1,1-.32,0,3.7,3.7,0,0,1,1.21-2.78,4.36,4.36,0,0,1,3-1.09C21.6,0,23,3,23.06,3.09a.17.17,0,0,1,0,.07v8.42A.16.16,0,0,1,22.92,11.74Z"/><path class="cls-1" d="M21.94,12a.16.16,0,0,1-.16-.16V3.67a2.83,2.83,0,0,0-2.72-2.39,2.71,2.71,0,0,0-2.79,2.57A.16.16,0,0,1,16.1,4,.16.16,0,0,1,16,3.83,3,3,0,0,1,19.06,1a3.22,3.22,0,0,1,3,2.67v8.22A.16.16,0,0,1,21.94,12Z"/><path class="cls-1" d="M17.36,5.64H13.92a.16.16,0,0,1-.16-.16,1.88,1.88,0,1,1,3.75,0A.16.16,0,0,1,17.36,5.64Zm-3.27-.32h3.1a1.56,1.56,0,0,0-3.1,0Z"/><path class="cls-1" d="M15.09,7.46a.16.16,0,0,1-.16-.15V6.48a.16.16,0,0,1,.16-.15.15.15,0,0,1,.15.15v.83A.15.15,0,0,1,15.09,7.46Z"/><path class="cls-1" d="M15.09,9.52a.16.16,0,0,1-.16-.16V8.54a.16.16,0,0,1,.16-.16.16.16,0,0,1,.15.16v.82A.16.16,0,0,1,15.09,9.52Z"/><path class="cls-1" d="M15.21,11.39a.16.16,0,0,1-.16-.16v-.82a.16.16,0,1,1,.32,0v.82A.16.16,0,0,1,15.21,11.39Z"/><path class="cls-1" d="M16.23,8.38a.16.16,0,0,1-.16-.16V7.4a.16.16,0,0,1,.32,0v.82A.16.16,0,0,1,16.23,8.38Z"/><path class="cls-1" d="M16.11,10.41a.16.16,0,0,1-.16-.15v-1a.16.16,0,0,1,.16-.16.16.16,0,0,1,.16.16v1A.16.16,0,0,1,16.11,10.41Z"/></svg>