<svg id="Capa_1" data-name="Capa 1" xmlns="http://www.w3.org/2000/svg" viewBox="0 0 25.77 20.75"><defs><style>.cls-1{fill:#4dc2ee;}</style></defs><title>iconografía</title><path class="cls-1" d="M7.75,15.73a.21.21,0,0,1-.21-.22V.21A.21.21,0,0,1,7.75,0,.21.21,0,0,1,8,.21v15.3A.22.22,0,0,1,7.75,15.73Z"/><path class="cls-1" d="M18.62,15.73a.22.22,0,0,1-.21-.22V.21A.21.21,0,0,1,18.62,0a.21.21,0,0,1,.22.21v15.3A.22.22,0,0,1,18.62,15.73Z"/><path class="cls-1" d="M18.43,3.28H8a.21.21,0,0,1-.22-.21A.22.22,0,0,1,8,2.86H18.43a.22.22,0,0,1,.21.21A.21.21,0,0,1,18.43,3.28Z"/><path class="cls-1" d="M18.43,7.42H8a.21.21,0,0,1-.22-.21A.22.22,0,0,1,8,7H18.43a.22.22,0,0,1,.21.21A.21.21,0,0,1,18.43,7.42Z"/><path class="cls-1" d="M18.62,11.22H7.75A.21.21,0,0,1,7.54,11a.21.21,0,0,1,.21-.21H18.62a.21.21,0,0,1,.22.21A.22.22,0,0,1,18.62,11.22Z"/><path class="cls-1" d="M19.22,16.76A6.12,6.12,0,0,1,16,15.41a6.09,6.09,0,0,0-3.18-1.35A6.08,6.08,0,0,0,9.66,15.4,6.22,6.22,0,0,1,6.4,16.76a7.86,7.86,0,0,1-3.85-1.6,5.71,5.71,0,0,0-2.34-1.1.21.21,0,0,1,0-.42,5.7,5.7,0,0,1,2.57,1.17A7.61,7.61,0,0,0,6.4,16.33a5.76,5.76,0,0,0,3-1.29,6.38,6.38,0,0,1,3.41-1.4,6.33,6.33,0,0,1,3.41,1.42,5.74,5.74,0,0,0,3,1.27,6.55,6.55,0,0,0,3.37-1.52A4.82,4.82,0,0,1,25,13.64a.21.21,0,1,1,0,.42,4.77,4.77,0,0,0-2.13,1.09A6.8,6.8,0,0,1,19.22,16.76Z"/><path class="cls-1" d="M19.82,20.75a6.09,6.09,0,0,1-3.2-1.35,6.07,6.07,0,0,0-3.19-1.34,6.06,6.06,0,0,0-3.17,1.33A6.14,6.14,0,0,1,7,20.75a7.94,7.94,0,0,1-3.85-1.59,5.58,5.58,0,0,0-2.34-1.1.21.21,0,0,1-.21-.21.21.21,0,0,1,.21-.22A5.7,5.7,0,0,1,3.38,18.8,7.53,7.53,0,0,0,7,20.33,5.84,5.84,0,0,0,10,19a6.39,6.39,0,0,1,3.4-1.41,6.33,6.33,0,0,1,3.42,1.42,5.67,5.67,0,0,0,3,1.28,6.49,6.49,0,0,0,3.37-1.53,4.82,4.82,0,0,1,2.37-1.17.21.21,0,0,1,.21.22.21.21,0,0,1-.21.21,4.74,4.74,0,0,0-2.13,1.08A6.76,6.76,0,0,1,19.82,20.75Z"/></svg>