<svg id="Capa_1" data-name="Capa 1" xmlns="http://www.w3.org/2000/svg" viewBox="0 0 25.77 38.66"><defs><style>.cls-1{fill:#4dc2ee;}</style></defs><title>iconografía</title><path class="cls-1" d="M11.52,26.06A10.35,10.35,0,0,1,1.16,15.69v-.2H21.89v.2a10.33,10.33,0,0,1-3,7.33,10.49,10.49,0,0,1-3.3,2.22A10.35,10.35,0,0,1,11.52,26.06Zm-10-10.18a10,10,0,0,0,20,0Z"/><path class="cls-1" d="M17.47,35.09H3.93l4.18-9.31a.2.2,0,0,1,.26-.1.2.2,0,0,1,.1.26L4.54,34.7H17.47a.18.18,0,0,1,.19.19A.19.19,0,0,1,17.47,35.09Z"/><path class="cls-1" d="M19.5,38.66a.19.19,0,0,1-.18-.11L13.71,25.94a.2.2,0,0,1,.1-.26.2.2,0,0,1,.26.1l5.6,12.61a.2.2,0,0,1-.09.26Z"/><path class="cls-1" d="M2.64,38.66A2.64,2.64,0,1,1,5.28,36,2.64,2.64,0,0,1,2.64,38.66Zm0-4.88A2.25,2.25,0,1,0,4.89,36,2.25,2.25,0,0,0,2.64,33.78Z"/><path class="cls-1" d="M9.24,11.36H9.18a2,2,0,0,1-1-1,2.78,2.78,0,0,1,.21-2.25c.31-.68.61-1.31.9-1.93a19.76,19.76,0,0,0,1.41-3.38c.13-.69-.88-2-1.29-2.44a.2.2,0,0,1,0-.28.19.19,0,0,1,.27,0,9.48,9.48,0,0,1,.75,1A2.62,2.62,0,0,1,11,2.85,19.8,19.8,0,0,1,9.6,6.32L8.7,8.24a2.43,2.43,0,0,0-.2,1.93,1.52,1.52,0,0,0,.81.81.19.19,0,0,1,.11.25A.18.18,0,0,1,9.24,11.36Z"/><path class="cls-1" d="M13.77,11.32s-1.06-.89-.06-3.24a3.89,3.89,0,0,0,.35-2.35A2,2,0,0,0,13.75,5a.18.18,0,0,1,0-.27.2.2,0,0,1,.28,0s1,1.19,0,3.52a3.61,3.61,0,0,0-.36,2.18A1,1,0,0,0,14,11h0Z"/><path class="cls-1" d="M25.58,18.75H21.7a.19.19,0,0,1-.2-.19.2.2,0,0,1,.2-.2h3.88a.2.2,0,0,1,.19.2A.19.19,0,0,1,25.58,18.75Z"/><path class="cls-1" d="M6.26,21.61a.17.17,0,0,1-.13-.05A7.94,7.94,0,0,1,4,17.76a.2.2,0,0,1,.15-.23.2.2,0,0,1,.23.15h0a7.86,7.86,0,0,0,2,3.6.19.19,0,0,1-.13.33Z"/></svg>