<svg id="Capa_1" data-name="Capa 1" xmlns="http://www.w3.org/2000/svg" viewBox="0 0 27.32 23.94"><defs><style>.cls-1{fill:#4dc2ee;}</style></defs><title>iconografía</title><g id="_Grupo_" data-name="&lt;Grupo&gt;"><g id="_Grupo_2" data-name="&lt;Grupo&gt;"><path class="cls-1" d="M.14,15.53H.09A.14.14,0,0,1,0,15.39V13.07A.11.11,0,0,1,0,13L11.47.39a1.3,1.3,0,0,1,1.95.1l4.93,5.74a.18.18,0,0,1,0,.1V8.64a.14.14,0,0,1-.1.13.11.11,0,0,1-.15,0L13.2,3a1,1,0,0,0-.75-.39,1,1,0,0,0-.78.3L.25,15.48A.16.16,0,0,1,.14,15.53Zm.14-2.4V15L11.47,2.7a1.32,1.32,0,0,1,1-.38,1.3,1.3,0,0,1,.95.48L18.1,8.26V6.38L13.2.67A1,1,0,0,0,11.67.58Z"/></g><g id="_Grupo_3" data-name="&lt;Grupo&gt;"><path class="cls-1" d="M20.73,23.94h-7.8a1,1,0,0,1-1-1V17.66a.69.69,0,0,0-.68-.68H8.13a.68.68,0,0,0-.68.68V23a1,1,0,0,1-1,1H4.15a1,1,0,0,1-1-1V12.2a.14.14,0,0,1,.28,0V23a.69.69,0,0,0,.68.69H6.48A.68.68,0,0,0,7.16,23V17.66a1,1,0,0,1,1-1h3.16a1,1,0,0,1,1,1V23a.69.69,0,0,0,.68.69h7.8a.69.69,0,0,0,.68-.69V18.29a.14.14,0,0,1,.28,0V23A1,1,0,0,1,20.73,23.94Z"/></g></g><g id="_Grupo_4" data-name="&lt;Grupo&gt;"><path class="cls-1" d="M21.58,14.71A3.45,3.45,0,1,1,25,11.26,3.46,3.46,0,0,1,21.58,14.71Zm0-6.55a3.1,3.1,0,1,0,3.1,3.1A3.1,3.1,0,0,0,21.58,8.16Z"/></g><g id="_Grupo_5" data-name="&lt;Grupo&gt;"><path class="cls-1" d="M27.14,19.25a.17.17,0,0,1-.13-.07l-3.86-5a.17.17,0,0,1,0-.24.18.18,0,0,1,.25,0l3.85,5a.17.17,0,0,1,0,.24A.15.15,0,0,1,27.14,19.25Z"/></g></svg>