<svg id="Capa_1" data-name="Capa 1" xmlns="http://www.w3.org/2000/svg" viewBox="0 0 25.77 19.5"><defs><style>.cls-1{fill:#4dc2ee;}</style></defs><title>iconografía</title><path class="cls-1" d="M25.39,17H.39v-.24a12.5,12.5,0,0,1,25,0ZM.87,16.51h24a12,12,0,0,0-24,0Z"/><rect class="cls-1" x="12.64" y="0.05" width="0.48" height="4.44"/><path class="cls-1" d="M15.83.48H9.94A.24.24,0,0,1,9.7.24.24.24,0,0,1,9.94,0h5.89a.24.24,0,0,1,.24.24A.24.24,0,0,1,15.83.48Z"/><path class="cls-1" d="M25.53,19.5H.24A.24.24,0,0,1,0,19.26.24.24,0,0,1,.24,19H25.53a.24.24,0,0,1,.24.24A.24.24,0,0,1,25.53,19.5Z"/></svg>