<svg id="Capa_1" data-name="Capa 1" xmlns="http://www.w3.org/2000/svg" viewBox="0 0 25.81 24.93"><defs><style>.cls-1{fill:#4dc2ee;}</style></defs><title>iconografía</title><g id="_Grupo_" data-name="&lt;Grupo&gt;"><path class="cls-1" d="M.19,16H.12A.2.2,0,0,1,0,15.8V13.93a.19.19,0,0,1,.05-.13L12.19.43a1.42,1.42,0,0,1,2.13.1L25.76,13.74a.21.21,0,0,1,0,.13v1.87a.19.19,0,0,1-.13.18.19.19,0,0,1-.21-.05L14,2.65a1.05,1.05,0,0,0-.76-.39,1,1,0,0,0-.8.3L.33,15.93A.2.2,0,0,1,.19,16Zm.19-2v1.31l11.81-13a1.45,1.45,0,0,1,1.1-.42,1.4,1.4,0,0,1,1,.53L25.43,15.23V13.94L14,.78a1.06,1.06,0,0,0-.76-.4,1.08,1.08,0,0,0-.8.31Z"/></g><g id="_Grupo_2" data-name="&lt;Grupo&gt;"><path class="cls-1" d="M22.06,24.93H13.78a1.07,1.07,0,0,1-1.07-1.07V18.22a.68.68,0,0,0-.68-.69H8.68a.69.69,0,0,0-.69.69v5.64a1.07,1.07,0,0,1-1.07,1.07H4.45a1.07,1.07,0,0,1-1.07-1.07V12.42a.19.19,0,0,1,.2-.19.19.19,0,0,1,.19.19V23.86a.67.67,0,0,0,.68.68H6.92a.68.68,0,0,0,.69-.68V18.22a1.07,1.07,0,0,1,1.07-1.07H12a1.06,1.06,0,0,1,1.06,1.07v5.64a.68.68,0,0,0,.69.68h8.28a.68.68,0,0,0,.68-.68V13.08a.19.19,0,0,1,.19-.19.18.18,0,0,1,.19.19V23.86A1.07,1.07,0,0,1,22.06,24.93Z"/></g></svg>