<svg id="Capa_1" data-name="Capa 1" xmlns="http://www.w3.org/2000/svg" viewBox="0 0 25.87 25.63"><defs><style>.cls-1{fill:#4dc2ee;}</style></defs><title>iconografía</title><path class="cls-1" d="M4.59,9.19a4.6,4.6,0,1,1,4.6-4.6A4.6,4.6,0,0,1,4.59,9.19Zm0-8.81A4.21,4.21,0,1,0,8.8,4.59,4.22,4.22,0,0,0,4.59.38Z"/><path class="cls-1" d="M15.16,9.19a4.6,4.6,0,1,1,4.59-4.6A4.6,4.6,0,0,1,15.16,9.19Zm0-8.81a4.21,4.21,0,1,0,4.21,4.21A4.22,4.22,0,0,0,15.16.38Z"/><path class="cls-1" d="M17.52,22.68h-15A2.52,2.52,0,0,1,0,20.16V12.73a2.52,2.52,0,0,1,2.52-2.52h15A2.52,2.52,0,0,1,20,12.73v7.43A2.52,2.52,0,0,1,17.52,22.68Zm-15-12.09A2.14,2.14,0,0,0,.38,12.73v7.43A2.14,2.14,0,0,0,2.52,22.3h15a2.14,2.14,0,0,0,2.14-2.14V12.73a2.14,2.14,0,0,0-2.14-2.14Z"/><path class="cls-1" d="M3.2,20A.18.18,0,0,1,3,19.78V13.47a.19.19,0,0,1,.19-.2H15.84a.2.2,0,0,1,.19.2.2.2,0,0,1-.19.19H3.39v6.12A.18.18,0,0,1,3.2,20Z"/><path class="cls-1" d="M10,25.63a.19.19,0,0,1-.19-.19v-3A.19.19,0,0,1,10,22.3a.18.18,0,0,1,.19.19v3A.18.18,0,0,1,10,25.63Z"/><path class="cls-1" d="M25.68,22.27h-.07L19.78,20a.2.2,0,0,1-.12-.18V14a.19.19,0,0,1,.1-.17l5.83-3.09a.19.19,0,0,1,.19,0,.19.19,0,0,1,.09.16V22.08a.19.19,0,0,1-.09.16A.17.17,0,0,1,25.68,22.27ZM20,19.65l5.45,2.15V11.27L20,14.15Z"/></svg>