<svg id="Capa_1" data-name="Capa 1" xmlns="http://www.w3.org/2000/svg" viewBox="0 0 22.88 25.23"><defs><style>.cls-1{fill:#4dc2ee;}</style></defs><title>iconografía</title><path class="cls-1" d="M22.74,22.68a.14.14,0,0,1-.14-.14V13.93c0-.09,0-2.1-1.52-2.1H16.79a.13.13,0,0,1-.14-.13V8.78c0-.06,0-1.38-1.75-1.73s-11.06,0-11.15,0a.11.11,0,0,1-.1,0,.14.14,0,0,1,0-.1V2.55C3.6,2.43,3.39.27,1.85.27H.14A.13.13,0,0,1,0,.14.14.14,0,0,1,.14,0H1.85c1.83,0,2,2.51,2,2.53h0V6.78c1.22,0,9.33-.35,11.08,0a2.2,2.2,0,0,1,2,2v2.78h4.15c1.78,0,1.8,2.34,1.8,2.37v8.61A.14.14,0,0,1,22.74,22.68Z"/><path class="cls-1" d="M3.74,12.34a.13.13,0,0,1-.13-.14V6.92a.13.13,0,0,1,.13-.14.14.14,0,0,1,.14.14V12.2A.14.14,0,0,1,3.74,12.34Z"/><path class="cls-1" d="M16.76,15.16h0a.13.13,0,0,1-.13-.14l0-3.33a.13.13,0,0,1,.14-.13.14.14,0,0,1,.14.14l0,3.32A.13.13,0,0,1,16.76,15.16Z"/><path class="cls-1" d="M9.43,25.23a7.75,7.75,0,1,1,5.49-2.29A7.62,7.62,0,0,1,9.43,25.23ZM9.36,9.89a7.54,7.54,0,1,0,7.54,7.53A7.54,7.54,0,0,0,9.36,9.89Z"/><path class="cls-1" d="M9.43,22.12a4.36,4.36,0,0,1-3-1.25,4.22,4.22,0,0,1-1.29-3,4.28,4.28,0,1,1,7.33,3A4.17,4.17,0,0,1,9.43,22.12Zm-.07-8.28a4,4,0,0,0-4,4,4,4,0,0,0,4.07,4,3.93,3.93,0,0,0,3.94-4A4,4,0,0,0,9.36,13.84Z"/><path class="cls-1" d="M20,24.9a2.84,2.84,0,1,1,2.84-2.84A2.85,2.85,0,0,1,20,24.9Zm0-5.41a2.57,2.57,0,1,0,2.56,2.57A2.57,2.57,0,0,0,20,19.49Z"/></svg>