<svg id="Capa_1" data-name="Capa 1" xmlns="http://www.w3.org/2000/svg" viewBox="0 0 23.75 29.56"><defs><style>.cls-1{fill:#4dc2ee;}</style></defs><title>iconografía</title><path class="cls-1" d="M11.44,29.56c-3.12,0-6.09-.28-6.46-.32a.4.4,0,0,1-.33-.09,2.38,2.38,0,0,1-.85-1.9,1.62,1.62,0,0,1,1-1.31V23.23a8,8,0,0,1-2.7-1.74,7.43,7.43,0,0,1-1.89-7V3A4.78,4.78,0,0,1,.44,1.54,2.11,2.11,0,0,1,2.48,0H9c.07,0,1.74.46,1.74,3.67V14.34H23.54a.25.25,0,0,1,.15.06.28.28,0,0,1,.06.15A11.51,11.51,0,0,1,22.59,19a8,8,0,0,1-2.67,3.08,8.84,8.84,0,0,1-4.84,1.4,14.13,14.13,0,0,0,1.06,2.66c.86.7,1.22,1.34,1.06,1.91-.27,1-2.09,1.32-2.3,1.35h0C13.81,29.52,12.61,29.56,11.44,29.56Zm3.43-.35ZM5,28.83H5a59.75,59.75,0,0,0,9.87.18c.49-.08,1.78-.41,2-1.06.13-.49-.43-1.08-.93-1.48h0a14.83,14.83,0,0,1-1.28-3.12.19.19,0,0,1,0-.18.21.21,0,0,1,.17-.08c3.5,0,6-1.44,7.42-4.26a11.17,11.17,0,0,0,1.11-4.08H10.55a.2.2,0,0,1-.2-.2V3.68C10.35,1,9.13.47,8.94.41H2.48A1.69,1.69,0,0,0,.83,1.69,4.23,4.23,0,0,0,.58,3V14.55a.08.08,0,0,1,0,0A7.05,7.05,0,0,0,2.35,21.2,7.5,7.5,0,0,0,5,22.89a.19.19,0,0,1,.15.19v3a.21.21,0,0,1-.12.19,1.22,1.22,0,0,0-.84,1.27,2,2,0,0,0,.71,1.32Z"/><path class="cls-1" d="M10.55,14.75H.37a.2.2,0,0,1-.2-.2.21.21,0,0,1,.2-.21H10.55a.21.21,0,0,1,.21.21A.2.2,0,0,1,10.55,14.75Z"/></svg>