<svg id="Capa_1" data-name="Capa 1" xmlns="http://www.w3.org/2000/svg" viewBox="0 0 22.69 30.63"><defs><style>.cls-1{fill:#4dc2ee;}</style></defs><title>iconografía</title><path class="cls-1" d="M21.89,30.63H.8a.8.8,0,0,1-.8-.8V.8A.8.8,0,0,1,.8,0H21.89a.8.8,0,0,1,.8.8v29A.8.8,0,0,1,21.89,30.63ZM.8.39A.42.42,0,0,0,.39.8v29a.41.41,0,0,0,.41.41H21.89a.41.41,0,0,0,.41-.41V.8a.42.42,0,0,0-.41-.41Z"/><path class="cls-1" d="M16.45,12.86H6.57a.57.57,0,0,1-.5-.29.55.55,0,0,1,0-.58L11,3.43a.58.58,0,0,1,1,0L17,12a.55.55,0,0,1,0,.58A.57.57,0,0,1,16.45,12.86ZM11.51,3.54a.19.19,0,0,0-.16.09L6.41,12.19a.16.16,0,0,0,0,.18.16.16,0,0,0,.16.09h9.88a.18.18,0,0,0,.16-.09.16.16,0,0,0,0-.18L11.67,3.63A.19.19,0,0,0,11.51,3.54Z"/><path class="cls-1" d="M11.51,24.66a.57.57,0,0,1-.5-.29L6.07,15.81a.55.55,0,0,1,0-.58.57.57,0,0,1,.5-.29h9.88a.57.57,0,0,1,.5.29.55.55,0,0,1,0,.58L12,24.37A.57.57,0,0,1,11.51,24.66Zm.33-.39ZM6.57,15.34a.16.16,0,0,0-.16.09.16.16,0,0,0,0,.18l4.94,8.56a.18.18,0,0,0,.32,0l4.94-8.56a.16.16,0,0,0,0-.18.18.18,0,0,0-.16-.09Z"/></svg>