<svg id="Capa_1" data-name="Capa 1" xmlns="http://www.w3.org/2000/svg" viewBox="0 0 25.39 20.47"><defs><style>.cls-1{fill:#4dc2ee;}</style></defs><title>iconografía</title><path class="cls-1" d="M3.42,17.69H.17A.17.17,0,0,1,0,17.52V3.23a.18.18,0,0,1,.17-.17H3.42a.18.18,0,0,1,.18.17V17.52A.17.17,0,0,1,3.42,17.69ZM.34,17.35H3.25V3.4H.34Z"/><path class="cls-1" d="M7.49,20.47H3.42a.18.18,0,0,1-.17-.17V.17A.18.18,0,0,1,3.42,0H7.49a.18.18,0,0,1,.17.17V20.3A.18.18,0,0,1,7.49,20.47ZM3.6,20.13H7.32V.34H3.6Z"/><path class="cls-1" d="M25.21,17.69H22a.17.17,0,0,1-.17-.17V3.23A.18.18,0,0,1,22,3.06h3.25a.18.18,0,0,1,.18.17V17.52A.17.17,0,0,1,25.21,17.69Zm-3.08-.34H25V3.4H22.13Z"/><path class="cls-1" d="M22,20.47H17.9a.18.18,0,0,1-.18-.17V.17A.18.18,0,0,1,17.9,0H22a.17.17,0,0,1,.17.17V20.3A.17.17,0,0,1,22,20.47Zm-3.89-.34h3.72V.34H18.07Z"/><path class="cls-1" d="M17.9,12.35H7.49a.17.17,0,0,1-.17-.18V7.85a.16.16,0,0,1,.17-.17H17.9a.17.17,0,0,1,.17.17v4.32A.18.18,0,0,1,17.9,12.35ZM7.66,12H17.72V8H7.66Z"/></svg>