<svg id="Capa_1" data-name="Capa 1" xmlns="http://www.w3.org/2000/svg" viewBox="0 0 25.77 20.97"><defs><style>.cls-1{fill:#4dc2ee;}</style></defs><title>iconografía</title><path class="cls-1" d="M24.5,20.84H1.55l-.28-8.68H24.5ZM1.78,20.6H24.26V12.4H1.52Z"/><path class="cls-1" d="M24.67,12.37H.7l0,0A2,2,0,0,1,.1,10.25a2.63,2.63,0,0,1,.56-1l0,0h24l0,0a1.91,1.91,0,0,1,1.07,1.54c0,.9-1,1.52-1.07,1.55ZM.8,12.13H24.6c.16-.1.92-.63.93-1.33,0-.45-.3-.89-.93-1.31H.8a2.43,2.43,0,0,0-.47.84A1.7,1.7,0,0,0,.8,12.13Zm0-2.68Z"/><path class="cls-1" d="M11.23,16.36H4.81V9.25h6.42Zm-6.18-.23H11V9.49H5.05Z"/><path class="cls-1" d="M10.63,14.74H4.81V13h5.82a.12.12,0,0,1,.12.12.12.12,0,0,1-.12.12H5.05V14.5h5.58a.12.12,0,0,1,.12.12A.12.12,0,0,1,10.63,14.74Z"/><path class="cls-1" d="M8.49,7.77a.13.13,0,0,1-.12-.08.12.12,0,0,1,.07-.17.79.79,0,0,0,.36-.45,2.43,2.43,0,0,0-.43-1.9,2.48,2.48,0,0,1-.41-2,1.57,1.57,0,0,1,.78-.79l.18-.11a1,1,0,0,0,.32-.64A1.84,1.84,0,0,0,8.89.32a.13.13,0,0,1,0-.19.14.14,0,0,1,.19,0,2.09,2.09,0,0,1,.41,1.55,1.21,1.21,0,0,1-.44.82l-.19.12a1.4,1.4,0,0,0-.67.65,2.3,2.3,0,0,0,.4,1.75,2.7,2.7,0,0,1,.44,2.12,1,1,0,0,1-.51.59Z"/><path class="cls-1" d="M12.17,7.67A.13.13,0,0,1,12,7.59a.14.14,0,0,1,.07-.18A.68.68,0,0,0,12.47,7a2.45,2.45,0,0,0-.42-1.9,2.44,2.44,0,0,1-.41-2,1.54,1.54,0,0,1,.78-.79l.17-.11a1,1,0,0,0,.33-.64A1.83,1.83,0,0,0,12.56.21a.13.13,0,0,1,0-.18.12.12,0,0,1,.18,0,2,2,0,0,1,.41,1.56,1.24,1.24,0,0,1-.44.82l-.19.12a1.3,1.3,0,0,0-.66.65,2.26,2.26,0,0,0,.39,1.74,2.71,2.71,0,0,1,.44,2.12,1,1,0,0,1-.5.6Z"/><path class="cls-1" d="M15.76,7.74a.13.13,0,0,1-.12-.08.14.14,0,0,1,.07-.18A.71.71,0,0,0,16.07,7a2.43,2.43,0,0,0-.42-1.89,2.46,2.46,0,0,1-.41-2A1.54,1.54,0,0,1,16,2.39l.18-.11a1,1,0,0,0,.33-.64A1.83,1.83,0,0,0,16.16.28a.13.13,0,0,1,0-.18.12.12,0,0,1,.18,0,2.07,2.07,0,0,1,.41,1.56,1.26,1.26,0,0,1-.44.82l-.19.12a1.3,1.3,0,0,0-.66.65A2.26,2.26,0,0,0,15.88,5a2.71,2.71,0,0,1,.44,2.12,1,1,0,0,1-.5.6Z"/><path class="cls-1" d="M4,20.84a.12.12,0,0,1-.12-.12V12.28A.12.12,0,0,1,4,12.16a.13.13,0,0,1,.12.12v8.44A.13.13,0,0,1,4,20.84Z"/><path class="cls-1" d="M7.08,20.84A.12.12,0,0,1,7,20.72V16.24a.12.12,0,0,1,.24,0v4.48A.12.12,0,0,1,7.08,20.84Z"/><path class="cls-1" d="M10.19,20.84a.12.12,0,0,1-.12-.12V16.24a.11.11,0,0,1,.12-.11.12.12,0,0,1,.12.11v4.48A.13.13,0,0,1,10.19,20.84Z"/><path class="cls-1" d="M14.35,20.84a.13.13,0,0,1-.12-.12V12.31a.12.12,0,0,1,.12-.12.12.12,0,0,1,.12.12v8.41A.12.12,0,0,1,14.35,20.84Z"/><path class="cls-1" d="M17.59,20.84a.13.13,0,0,1-.12-.12V12.25a.13.13,0,0,1,.12-.12.12.12,0,0,1,.12.12v8.47A.12.12,0,0,1,17.59,20.84Z"/><path class="cls-1" d="M21.62,20.84a.12.12,0,0,1-.12-.12V12.28a.12.12,0,0,1,.12-.12.13.13,0,0,1,.12.12v8.44A.13.13,0,0,1,21.62,20.84Z"/></svg>