<svg id="Capa_1" data-name="Capa 1" xmlns="http://www.w3.org/2000/svg" viewBox="0 0 25.87 33.28"><defs><style>.cls-1{fill:#4dc2ee;}</style></defs><title>iconografía</title><path class="cls-1" d="M25.72,31.71H.14A.15.15,0,0,1,0,31.56V.14A.14.14,0,0,1,.14,0H25.72a.15.15,0,0,1,.15.14V31.56A.15.15,0,0,1,25.72,31.71ZM.29,31.42H25.58V.29H.29Z"/><path class="cls-1" d="M13,28.2a9.92,9.92,0,1,1,9.92-9.91A9.93,9.93,0,0,1,13,28.2ZM13,8.66a9.63,9.63,0,1,0,9.63,9.63A9.64,9.64,0,0,0,13,8.66Z"/><path class="cls-1" d="M13,24.74a6.23,6.23,0,1,1,6.23-6.22A6.23,6.23,0,0,1,13,24.74Zm0-12.16A5.94,5.94,0,1,0,19,18.52,5.94,5.94,0,0,0,13,12.58Z"/><path class="cls-1" d="M25.72,6.4H.14A.15.15,0,0,1,0,6.25a.14.14,0,0,1,.14-.14H25.72a.15.15,0,0,1,.15.14A.15.15,0,0,1,25.72,6.4Z"/><path class="cls-1" d="M7.68,6.4a.15.15,0,0,1-.14-.15V3.58H2.09V6.25A.15.15,0,0,1,2,6.4a.15.15,0,0,1-.15-.15V3.43A.15.15,0,0,1,2,3.29H7.68a.14.14,0,0,1,.14.14V6.25A.15.15,0,0,1,7.68,6.4Z"/><path class="cls-1" d="M10.12,6.4A.15.15,0,0,1,10,6.25V.14A.14.14,0,0,1,10.12,0a.15.15,0,0,1,.15.14V6.25A.15.15,0,0,1,10.12,6.4Z"/><path class="cls-1" d="M22.6,4.43a1.58,1.58,0,1,1,1.58-1.58A1.58,1.58,0,0,1,22.6,4.43Zm0-2.87a1.29,1.29,0,1,0,1.29,1.29A1.3,1.3,0,0,0,22.6,1.56Z"/><path class="cls-1" d="M2.86,33.28H2a.15.15,0,0,1-.15-.15V31.56A.15.15,0,0,1,2,31.42h.91a.14.14,0,0,1,.14.14v1.57A.15.15,0,0,1,2.86,33.28ZM2.09,33h.62V31.71H2.09Z"/><path class="cls-1" d="M23.87,33.28H23a.15.15,0,0,1-.15-.15V31.56a.15.15,0,0,1,.15-.14h.9a.15.15,0,0,1,.15.14v1.57A.15.15,0,0,1,23.87,33.28ZM23.11,33h.62V31.71h-.62Z"/></svg>