<svg viewBox="0 0 21.43 26.96" xmlns="http://www.w3.org/2000/svg"><g fill="#4dc2ee"><path d="m.24 26.53a.24.24 0 0 1 -.24-.24v-7.92a3.52 3.52 0 0 1 .79-2.62 1.33 1.33 0 0 1 .9-.41h3.31c0-5.8.08-14.32 0-15a.21.21 0 0 1 0-.19.23.23 0 0 1 .32-.15c.18 0 .19.2.2.39s0 .28 0 .5v1.74 5.28 7.66.24h-3.84a.9.9 0 0 0 -.58.28 3.14 3.14 0 0 0 -.63 2.27v7.92a.23.23 0 0 1 -.23.25z"/><path d="m8.4 15.9c-1.4 0-3.13-.08-3.15-.08a.25.25 0 0 1 -.25-.25.24.24 0 0 1 .25-.22s1.74.06 3.14.08a.24.24 0 0 1 0 .47z"/><rect height="5.79" rx=".24" width=".47" x="2.54" y="20.92"/><path d="m5.35 26.68a.23.23 0 0 1 -.23-.24v-5.24a.24.24 0 1 1 .47 0v5.24a.24.24 0 0 1 -.24.24z"/><path d="m7.94 26.62a.24.24 0 0 1 -.24-.24v-5.13a.24.24 0 0 1 .24-.25.23.23 0 0 1 .23.24v5.13a.23.23 0 0 1 -.23.25z"/><path d="m8.68 21.4h-8.44a.24.24 0 0 1 0-.48h8.44a.24.24 0 1 1 0 .48z"/><path d="m20.17 27h-11.43l-.74-13.94a.24.24 0 0 1 -.21-.23.24.24 0 0 1 .24-.24h13.4zm-11-.47h10.56l1.18-13.43h-12.4z"/><path d="m14.76 16.84a3.83 3.83 0 0 1 -3.62-4 .23.23 0 0 1 .23-.24.24.24 0 0 1 .24.24 3.37 3.37 0 0 0 3.15 3.54 3.36 3.36 0 0 0 3.14-3.54.24.24 0 1 1 .48 0 3.84 3.84 0 0 1 -3.62 4z"/><path d="m10.36 11.22a1.85 1.85 0 0 1 -1.75-1.93 1.85 1.85 0 0 1 1.75-1.93 1.85 1.85 0 0 1 1.76 1.93 1.86 1.86 0 0 1 -1.76 1.93zm0-3.39a1.37 1.37 0 0 0 -1.27 1.46 1.37 1.37 0 0 0 1.27 1.45 1.37 1.37 0 0 0 1.28-1.45 1.37 1.37 0 0 0 -1.28-1.46z"/><path d="m14 7.43a1.32 1.32 0 0 1 -1.27-1.38 1.27 1.27 0 1 1 2.53 0 1.32 1.32 0 0 1 -1.26 1.38zm0-2.28a.85.85 0 0 0 -.79.9.79.79 0 1 0 1.57 0 .85.85 0 0 0 -.78-.9z"/><path d="m18.63 6.47a1.48 1.48 0 0 1 -1.4-1.54 1.41 1.41 0 1 1 2.8 0 1.48 1.48 0 0 1 -1.4 1.54zm0-2.6a1 1 0 0 0 -.92 1.06.93.93 0 1 0 1.84 0 1 1 0 0 0 -.92-1.06z"/><path d="m17.82 13.06a.23.23 0 0 1 -.24-.23 2.13 2.13 0 0 0 -2-2.25 2.13 2.13 0 0 0 -2 2.25.24.24 0 0 1 -.48 0 2.61 2.61 0 0 1 2.46-2.72 2.61 2.61 0 0 1 2.47 2.72.23.23 0 0 1 -.21.23z"/><path d="m21 12.87a.23.23 0 0 1 -.23-.24 2.5 2.5 0 0 0 -2.36-2.63 2.5 2.5 0 0 0 -2.33 2.63.24.24 0 1 1 -.47 0 3 3 0 0 1 2.8-3.1 3 3 0 0 1 2.81 3.1.24.24 0 0 1 -.22.24z"/></g></svg>