<svg id="Capa_1" data-name="Capa 1" xmlns="http://www.w3.org/2000/svg" viewBox="0 0 21.73 25.35"><defs><style>.cls-1{fill:#4dc2ee;}</style></defs><title>iconografía</title><g id="_Grupo_" data-name="&lt;Grupo&gt;"><path class="cls-1" d="M3.56,25.35l-2.15,0,.11-.2a10.29,10.29,0,0,0,1-2.6A6,6,0,0,0,2,19.39,25,25,0,0,1,.44,14.61c0-.13,0-.27,0-.43a14,14,0,0,1,0-3.42A18.12,18.12,0,0,1,1.67,7l.08-.2A4,4,0,0,0,2,5.18a5,5,0,0,0-.38-2A5.45,5.45,0,0,0,.38.91C.08.71,0,.63,0,.49A.15.15,0,0,1,.2.41l21.53,0-.22.24A9.8,9.8,0,0,0,20,2.84a5.69,5.69,0,0,0-.46,3,13.54,13.54,0,0,0,.5,1.42A13.53,13.53,0,0,1,21,10c0,.13,0,.32.05.53.15,1.33.41,3.8-.14,5.28-.39,1-.7,1.81-1,2.55-.19.45-.36.89-.54,1.35a5.1,5.1,0,0,0-.24,3c.06.16.12.4.19.67.14.54.35,1.36.58,1.5l.83.5H18.14l0-.07a6.26,6.26,0,0,1-.89-2.23c-.05-.56-.07-1.25-.08-1.86,0-.37,0-.71,0-1a1.8,1.8,0,0,0-.62-1.47c-.51-.43-1.6-.92-2.09-.69a4.81,4.81,0,0,0-.81.52,6,6,0,0,1-1,.62,4.71,4.71,0,0,1-3.39.11,10.39,10.39,0,0,1-1.69-1.08,1.65,1.65,0,0,0-1.59.09l-.41.27a1.71,1.71,0,0,0-.95,1.78c0,.2,0,.39,0,.56a6.15,6.15,0,0,1-.44,2.86,5.06,5.06,0,0,0-.54,1.45Zm14.74-.28h1.38A3.52,3.52,0,0,1,19,23.42a6.26,6.26,0,0,0-.18-.65,5.32,5.32,0,0,1,.24-3.21c.18-.47.36-.9.54-1.36.3-.74.61-1.5,1-2.54.52-1.42.26-3.85.12-5.15,0-.22,0-.4-.05-.54a14.44,14.44,0,0,0-.86-2.66,11.92,11.92,0,0,1-.52-1.46,6.12,6.12,0,0,1,.48-3.12,9.44,9.44,0,0,1,1.32-2L.57.69A6.32,6.32,0,0,1,1.92,3.05a5.42,5.42,0,0,1,.39,2.13A4.27,4.27,0,0,1,2,6.93l-.08.2A17.36,17.36,0,0,0,.72,10.81a13.9,13.9,0,0,0,0,3.34c0,.17,0,.31,0,.44a25.43,25.43,0,0,0,1.56,4.69,6.47,6.47,0,0,1,.52,3.25A9,9,0,0,1,1.87,25l1.46,0a5.4,5.4,0,0,1,.54-1.42,5.85,5.85,0,0,0,.4-2.72c0-.18,0-.37,0-.56a2,2,0,0,1,1.08-2,4.4,4.4,0,0,0,.39-.26,1.83,1.83,0,0,1,2-.06,10.83,10.83,0,0,0,1.62,1,4.43,4.43,0,0,0,3.14-.12,4.65,4.65,0,0,0,.92-.59,5.41,5.41,0,0,1,.86-.55c.68-.32,1.91.33,2.39.73a2.07,2.07,0,0,1,.72,1.68c0,.27,0,.61,0,1,0,.61,0,1.29.08,1.85A6.18,6.18,0,0,0,18.3,25.07Z"/></g><g id="_Grupo_2" data-name="&lt;Grupo&gt;"><path class="cls-1" d="M17.15,16.33H4.43a.77.77,0,0,1-.77-.78v-5a.77.77,0,0,1,.77-.77H17.15a.78.78,0,0,1,.78.77v5A.78.78,0,0,1,17.15,16.33ZM4.43,10.06a.49.49,0,0,0-.49.49v5a.49.49,0,0,0,.49.49H17.15a.49.49,0,0,0,.49-.49v-5a.49.49,0,0,0-.49-.49Z"/></g><g id="_Grupo_3" data-name="&lt;Grupo&gt;"><path class="cls-1" d="M17.15,8.51H4.43a.77.77,0,0,1-.77-.78v-5A.77.77,0,0,1,4.43,2H17.15a.78.78,0,0,1,.78.77v5A.78.78,0,0,1,17.15,8.51ZM4.43,2.24a.49.49,0,0,0-.49.49v5a.49.49,0,0,0,.49.49H17.15a.49.49,0,0,0,.49-.49v-5a.49.49,0,0,0-.49-.49Z"/></g><g id="_Grupo_4" data-name="&lt;Grupo&gt;"><path class="cls-1" d="M6.87,14a.93.93,0,1,1,.93-.93A.93.93,0,0,1,6.87,14Zm0-1.57a.65.65,0,1,0,.65.64A.65.65,0,0,0,6.87,12.41Z"/></g><g id="_Grupo_5" data-name="&lt;Grupo&gt;"><path class="cls-1" d="M6.87,6.16a.93.93,0,1,1,.93-.93A.93.93,0,0,1,6.87,6.16Zm0-1.57a.65.65,0,1,0,.65.64A.65.65,0,0,0,6.87,4.59Z"/></g><g id="_Grupo_6" data-name="&lt;Grupo&gt;"><path class="cls-1" d="M14.66,6.16a.93.93,0,1,1,.93-.93A.93.93,0,0,1,14.66,6.16Zm0-1.57a.65.65,0,1,0,.65.64A.64.64,0,0,0,14.66,4.59Z"/></g><g id="_Grupo_7" data-name="&lt;Grupo&gt;"><path class="cls-1" d="M14.66,14a.93.93,0,1,1,.93-.93A.93.93,0,0,1,14.66,14Zm0-1.57a.65.65,0,1,0,.65.64A.64.64,0,0,0,14.66,12.43Z"/></g></svg>