<svg id="Capa_1" data-name="Capa 1" xmlns="http://www.w3.org/2000/svg" viewBox="0 0 27.46 21.22"><defs><style>.cls-1{fill:#4dc2ee;}</style></defs><title>iconografía</title><path class="cls-1" d="M20.37,21.22A4.56,4.56,0,0,1,17,19.71a4.17,4.17,0,0,0-3.11-1.4h0a4.23,4.23,0,0,0-3.11,1.37l0,.05a4.54,4.54,0,0,1-6.34.37L2,18.06a.17.17,0,1,1,.22-.26l2.37,2.05a4.21,4.21,0,0,0,5.87-.35l0-.05A4.56,4.56,0,0,1,13.85,18h0a4.57,4.57,0,0,1,3.36,1.51,4.21,4.21,0,0,0,5.86.4l2.45-2.08a.17.17,0,1,1,.22.26l-2.45,2.07A4.53,4.53,0,0,1,20.37,21.22Z"/><path class="cls-1" d="M13.88,16.75a3.94,3.94,0,1,1,3.93-3.94A3.95,3.95,0,0,1,13.88,16.75Zm0-7.53a3.6,3.6,0,1,0,3.59,3.59A3.6,3.6,0,0,0,13.88,9.22Z"/><path class="cls-1" d="M3.06,14.14a3.07,3.07,0,1,1,3.07-3.06A3.06,3.06,0,0,1,3.06,14.14Zm0-5.79a2.73,2.73,0,1,0,2.73,2.73A2.72,2.72,0,0,0,3.06,8.35Z"/><path class="cls-1" d="M19.57,6.13a3.07,3.07,0,1,1,3.07-3.07A3.07,3.07,0,0,1,19.57,6.13Zm0-5.79A2.73,2.73,0,1,0,22.3,3.06,2.73,2.73,0,0,0,19.57.34Z"/><path class="cls-1" d="M11.25,5.65H5.79V.19h5.46ZM6.13,5.31h4.78V.53H6.13Z"/><path class="cls-1" d="M27.46,14.33H22V8.88h5.45ZM22.35,14h4.77V9.22H22.35Z"/><path class="cls-1" d="M22.19,5.51a.16.16,0,0,1-.13-.06L21.68,5a.15.15,0,0,1,0-.23.17.17,0,0,1,.24,0l.39.44a.17.17,0,0,1,0,.24A.17.17,0,0,1,22.19,5.51Z"/><path class="cls-1" d="M23.54,7.55a.16.16,0,0,1-.15-.09,9.76,9.76,0,0,0-.61-1,.18.18,0,0,1,0-.24.16.16,0,0,1,.23.05,11.53,11.53,0,0,1,.63,1.07.16.16,0,0,1-.07.23Z"/><path class="cls-1" d="M24.23,9.22a.17.17,0,0,1-.16-.12c-.06-.18-.12-.36-.19-.54a.17.17,0,0,1,.1-.22.18.18,0,0,1,.22.1c.07.18.13.37.19.56a.16.16,0,0,1-.11.21Z"/><path class="cls-1" d="M3.8,8.44H3.74a.17.17,0,0,1-.1-.22c.08-.18.15-.36.24-.54a.17.17,0,1,1,.3.15C4.1,8,4,8.16,4,8.34A.18.18,0,0,1,3.8,8.44Z"/><path class="cls-1" d="M4.47,7.06a.12.12,0,0,1-.08,0,.17.17,0,0,1-.06-.23c.16-.28.34-.56.52-.82a.17.17,0,0,1,.24,0,.17.17,0,0,1,0,.23c-.18.26-.35.53-.51.8A.18.18,0,0,1,4.47,7.06Z"/><path class="cls-1" d="M5.58,5.5a.21.21,0,0,1-.11,0,.16.16,0,0,1,0-.24,5.34,5.34,0,0,1,.39-.44A.17.17,0,1,1,6.08,5l-.38.43A.16.16,0,0,1,5.58,5.5Z"/><path class="cls-1" d="M11.08,2a.17.17,0,0,1-.17-.13A.18.18,0,0,1,11,1.67l.57-.13a.16.16,0,0,1,.2.13.16.16,0,0,1-.13.2L11.12,2Z"/><path class="cls-1" d="M15.42,1.75h0a7.32,7.32,0,0,0-.93-.09.17.17,0,0,1-.16-.18.16.16,0,0,1,.18-.16q.48,0,1,.09a.18.18,0,0,1,.14.2A.16.16,0,0,1,15.42,1.75Zm-2.84,0a.17.17,0,0,1-.17-.15.17.17,0,0,1,.15-.19c.32,0,.64-.06,1-.07h0a.16.16,0,0,1,.16.16.17.17,0,0,1-.16.18c-.31,0-.62,0-.93.07Z"/><path class="cls-1" d="M16.92,2.07h-.05a5.62,5.62,0,0,0-.55-.15.17.17,0,0,1-.13-.2.18.18,0,0,1,.21-.13l.57.15a.17.17,0,0,1,.11.21A.16.16,0,0,1,16.92,2.07Z"/></svg>