<svg id="Capa_1" data-name="Capa 1" xmlns="http://www.w3.org/2000/svg" viewBox="0 0 21.53 17.04"><defs><style>.cls-1{fill:#4dc2ee;}</style></defs><title>iconografía</title><path class="cls-1" d="M18.25,14.79H8.57V3.89h1.7l0,.19A4.23,4.23,0,0,0,10,5.84a.62.62,0,0,0,.58.45,1.29,1.29,0,0,0,1-.46,4.36,4.36,0,0,0-.05-1.67l0-.2.2,0c.05,0,4.7.55,6,0L18,3.84v.23c0,.08.21,7.91.25,10.56Zm-9.37-.31h9.06c0-2.52-.21-8.93-.25-10.19-1.41.45-4.88.12-5.76,0a3.86,3.86,0,0,1,0,1.66,1.58,1.58,0,0,1-1.32.63A1,1,0,0,1,9.74,6a4.12,4.12,0,0,1,.14-1.76h-1Z"/><path class="cls-1" d="M16.58,17H10.39a1.77,1.77,0,0,1-1.76-1.45,1.48,1.48,0,0,1-.06-.3h0v-.58a.16.16,0,0,1,.16-.15.15.15,0,0,1,.15.15v.57a1.4,1.4,0,0,0,0,.25,1.47,1.47,0,0,0,1.47,1.21h6.17a1.55,1.55,0,0,0,1-.37,1.36,1.36,0,0,0,.36-1v-.64a.15.15,0,0,1,.15-.15.17.17,0,0,1,.16.15v.64a1.7,1.7,0,0,1-.46,1.25A1.86,1.86,0,0,1,16.58,17Z"/><path class="cls-1" d="M20.22,13.69H18.1a.15.15,0,0,1-.16-.15.16.16,0,0,1,.16-.15h2.12c.77,0,1-.91,1-1V7.83a2.22,2.22,0,0,0-.42-1.56.61.61,0,0,0-.39-.21H18.1a.16.16,0,0,1-.16-.16.16.16,0,0,1,.16-.15h2.31s1.12,0,1.12,2.08V12.4h0a2,2,0,0,1-.23.63A1.2,1.2,0,0,1,20.22,13.69Zm.19-7.63Z"/><path class="cls-1" d="M10.84,12.09a.15.15,0,0,1-.15-.15V7.7a.15.15,0,0,1,.15-.15A.16.16,0,0,1,11,7.7v4.24A.16.16,0,0,1,10.84,12.09Z"/><rect class="cls-1" x="13.26" y="7.55" width="0.31" height="4.54" rx="0.15" ry="0.15"/><path class="cls-1" d="M15.85,12.09a.15.15,0,0,1-.15-.15V7.7a.15.15,0,0,1,.15-.15A.15.15,0,0,1,16,7.7v4.24A.15.15,0,0,1,15.85,12.09Z"/><path class="cls-1" d="M10.66,6.6h-.07A1,1,0,0,1,9.74,6a4.59,4.59,0,0,1,.17-1.89H8.6a.12.12,0,0,1-.08,0A1,1,0,0,1,8,3.36a1,1,0,0,1,.41-.83A2.65,2.65,0,0,1,9,.7,2.32,2.32,0,0,1,10.84,0a2.53,2.53,0,0,1,2,.7,1.67,1.67,0,0,1,.4.86s0,0,0-.05a1.35,1.35,0,0,1,1-.45c.54,0,.86.49,1,.93a3.24,3.24,0,0,1,.19-.51A2,2,0,0,1,17.36.29a1.54,1.54,0,0,1,.9.25,1.36,1.36,0,0,1,.51.64,2.59,2.59,0,0,1,.08,1.53A2.66,2.66,0,0,1,18.2,4a.91.91,0,0,1-.29.19c-1.25.57-5.05.2-6,.1a3.86,3.86,0,0,1,0,1.66A1.59,1.59,0,0,1,10.66,6.6Zm-2-2.84h1.47a.18.18,0,0,1,.12.05.14.14,0,0,1,0,.14l0,.13A4.23,4.23,0,0,0,10,5.84a.62.62,0,0,0,.58.45,1.29,1.29,0,0,0,1-.46,4.36,4.36,0,0,0-.05-1.67.15.15,0,0,1,0-.13A.13.13,0,0,1,11.76,4c.05,0,4.7.55,6,0A.53.53,0,0,0,18,3.8a2.63,2.63,0,0,0,.51-2.5A1.12,1.12,0,0,0,17.36.6a1.65,1.65,0,0,0-1.58,1,3,3,0,0,0-.29,1,.15.15,0,0,1-.15.14.15.15,0,0,1-.15-.13A3.33,3.33,0,0,0,15,2c-.19-.41-.42-.62-.7-.62a1.22,1.22,0,0,0-1,.72A.15.15,0,0,1,12.94,2a1.54,1.54,0,0,0-.35-1.1,2.22,2.22,0,0,0-1.75-.6A2.06,2.06,0,0,0,9.25.9a2.43,2.43,0,0,0-.5,1.68.13.13,0,0,1-.05.13c-.26.22-.38.43-.36.62A.67.67,0,0,0,8.64,3.76Z"/><path class="cls-1" d="M10.09,17H9.75a14.57,14.57,0,0,1-3.62-.53A8.83,8.83,0,0,1,2.3,14.37,7.87,7.87,0,0,1,.09,9.55,13.77,13.77,0,0,1,.15,5.94l0-.11.11,0a15.44,15.44,0,0,1,3,0,13.06,13.06,0,0,1,2.77.6A8.8,8.8,0,0,1,8.82,7.93a.15.15,0,0,1,0,.22.14.14,0,0,1-.21,0,10.45,10.45,0,0,0-5.38-2,15.72,15.72,0,0,0-2.81,0,14.1,14.1,0,0,0,0,3.42,7.47,7.47,0,0,0,5.83,6.7,14.62,14.62,0,0,0,5.05.46l.09,0a.16.16,0,0,1,.14.17h0v0l0,.12h-.12A12.26,12.26,0,0,1,10.09,17Z"/><path class="cls-1" d="M8.15,16.85h0A.16.16,0,0,1,8,16.66a3.66,3.66,0,0,1,.65-1.27.16.16,0,0,1,.25.19,3.11,3.11,0,0,0-.6,1.15A.16.16,0,0,1,8.15,16.85Z"/><path class="cls-1" d="M.22,9.7a.14.14,0,0,1-.13-.08.15.15,0,0,1,.06-.21s3.12-1.66,3.42-3.3A.15.15,0,0,1,3.75,6a.15.15,0,0,1,.12.18A4.5,4.5,0,0,1,2,8.62,13.24,13.24,0,0,1,.29,9.68Z"/><path class="cls-1" d="M7.91,13.83a.15.15,0,0,1-.11,0L3.2,9.38a.16.16,0,0,1,0-.22.15.15,0,0,1,.21,0L8,13.57a.14.14,0,0,1,0,.21A.16.16,0,0,1,7.91,13.83Z"/><path class="cls-1" d="M6.62,14.39a.15.15,0,0,1-.11,0,.17.17,0,0,1,0-.22l1.61-1.67a.15.15,0,0,1,.22,0,.16.16,0,0,1,0,.22l-1.6,1.68A.15.15,0,0,1,6.62,14.39Z"/><path class="cls-1" d="M6,13.53a.16.16,0,0,1-.11,0,.15.15,0,0,1,0-.22l1.45-1.34a.14.14,0,0,1,.21,0,.16.16,0,0,1,0,.22L6.1,13.49A.15.15,0,0,1,6,13.53Z"/><path class="cls-1" d="M5.17,12.83a.16.16,0,0,1-.11-.05.14.14,0,0,1,0-.21l1.57-1.63a.16.16,0,0,1,.22,0,.15.15,0,0,1,0,.21L5.28,12.78A.16.16,0,0,1,5.17,12.83Z"/><path class="cls-1" d="M4.54,12a.13.13,0,0,1-.1,0,.15.15,0,0,1,0-.22l1.44-1.54a.15.15,0,0,1,.22,0,.17.17,0,0,1,0,.22L4.65,11.94A.16.16,0,0,1,4.54,12Z"/><path class="cls-1" d="M3.63,11.36a.16.16,0,0,1-.11,0,.16.16,0,0,1,0-.22L5.18,9.52a.16.16,0,0,1,.21.23L3.74,11.31A.16.16,0,0,1,3.63,11.36Z"/><path class="cls-1" d="M3,10.39a.15.15,0,0,1-.11,0,.16.16,0,0,1,0-.22L4.38,8.68a.16.16,0,1,1,.22.22L3.15,10.35A.15.15,0,0,1,3,10.39Z"/></svg>