<svg id="Capa_1" data-name="Capa 1" xmlns="http://www.w3.org/2000/svg" viewBox="0 0 22.49 21.21"><defs><style>.cls-1{fill:#4dc2ee;}</style></defs><title>iconografía</title><path class="cls-1" d="M21.3,14a.16.16,0,0,1-.16-.16V7.05a.17.17,0,0,1,.16-.17.18.18,0,0,1,.17.17v6.81A.17.17,0,0,1,21.3,14Z"/><path class="cls-1" d="M21.15,21.21H1.49v-.16s0-.09,2-10.52C4.41,5.39,5.39.19,5.4.13l0-.13H17Zm-19.3-.32h18.9L16.68.33H5.7C4.43,7,2.14,19.24,1.85,20.89Z"/><path class="cls-1" d="M22.33,7.14H.16A.17.17,0,0,1,0,7a.16.16,0,0,1,.16-.16H22.33a.16.16,0,0,1,.16.16A.17.17,0,0,1,22.33,7.14Z"/><path class="cls-1" d="M21.47,13.32H1V6.88H21.47ZM1.35,13H21.14V7.21H1.35Z"/><path class="cls-1" d="M21.3,11.29H1.19A.18.18,0,0,1,1,11.12.17.17,0,0,1,1.19,11H21.3a.17.17,0,0,1,.17.16A.18.18,0,0,1,21.3,11.29Z"/><path class="cls-1" d="M21.3,9.25H1.19A.17.17,0,0,1,1,9.09a.17.17,0,0,1,.17-.17H21.3a.17.17,0,0,1,.17.17A.17.17,0,0,1,21.3,9.25Z"/><path class="cls-1" d="M19.29,13.32a.16.16,0,0,1-.16-.16V7.05a.16.16,0,1,1,.32,0v6.11A.16.16,0,0,1,19.29,13.32Z"/><path class="cls-1" d="M17.28,13.32a.17.17,0,0,1-.17-.16V7.05a.18.18,0,0,1,.17-.17.17.17,0,0,1,.16.17v6.11A.16.16,0,0,1,17.28,13.32Z"/><path class="cls-1" d="M15.27,13.32a.17.17,0,0,1-.17-.16V7.05a.18.18,0,0,1,.17-.17.17.17,0,0,1,.16.17v6.11A.16.16,0,0,1,15.27,13.32Z"/><path class="cls-1" d="M13.26,13.32a.17.17,0,0,1-.17-.16V7.05a.18.18,0,0,1,.17-.17.17.17,0,0,1,.16.17v6.11A.16.16,0,0,1,13.26,13.32Z"/><path class="cls-1" d="M11.25,13.32a.16.16,0,0,1-.17-.16V7.05a.17.17,0,0,1,.17-.17.17.17,0,0,1,.16.17v6.11A.16.16,0,0,1,11.25,13.32Z"/><path class="cls-1" d="M9.23,13.32a.16.16,0,0,1-.16-.16V7.05a.17.17,0,0,1,.16-.17.18.18,0,0,1,.17.17v6.11A.17.17,0,0,1,9.23,13.32Z"/><path class="cls-1" d="M7.22,13.32a.16.16,0,0,1-.16-.16V7.05a.17.17,0,0,1,.16-.17.18.18,0,0,1,.17.17v6.11A.17.17,0,0,1,7.22,13.32Z"/><path class="cls-1" d="M5.21,13.32a.16.16,0,0,1-.16-.16V7.05a.17.17,0,0,1,.16-.17.18.18,0,0,1,.17.17v6.11A.17.17,0,0,1,5.21,13.32Z"/><path class="cls-1" d="M3.2,13.32A.16.16,0,0,1,3,13.16V7.05a.16.16,0,1,1,.32,0v6.11A.16.16,0,0,1,3.2,13.32Z"/><path class="cls-1" d="M1.19,14A.17.17,0,0,1,1,13.86V7.05a.18.18,0,0,1,.17-.17.17.17,0,0,1,.16.17v6.81A.16.16,0,0,1,1.19,14Z"/><path class="cls-1" d="M8.73,5.51A1.29,1.29,0,1,1,10,4.23,1.28,1.28,0,0,1,8.73,5.51Zm0-2.24a1,1,0,1,0,1,1A1,1,0,0,0,8.73,3.27Z"/></svg>