<svg id="Capa_1" data-name="Capa 1" xmlns="http://www.w3.org/2000/svg" viewBox="0 0 30.98 21.3"><defs><style>.cls-1{fill:#4dc2ee;}</style></defs><title>iconografía</title><g id="_Grupo_" data-name="&lt;Grupo&gt;"><g id="_Grupo_2" data-name="&lt;Grupo&gt;"><path class="cls-1" d="M4.55,13.44h0a.15.15,0,0,1-.09-.14v-2a.14.14,0,0,1,0-.1L14.3.34A1.15,1.15,0,0,1,15.18,0,1.19,1.19,0,0,1,16,.43L25.3,11.15a.17.17,0,0,1,0,.1v2a.16.16,0,0,1-.09.14.17.17,0,0,1-.17,0L15.79,2.62a.85.85,0,0,0-1.28-.08L4.66,13.39A.13.13,0,0,1,4.55,13.44Zm.15-2.09v1.56L14.3,2.34A1.15,1.15,0,0,1,16,2.43l9,10.41V11.3L15.79.62A.86.86,0,0,0,15.16.3a.84.84,0,0,0-.65.25Z"/></g><g id="_Grupo_3" data-name="&lt;Grupo&gt;"><path class="cls-1" d="M22.3,20.68H15.58a.86.86,0,0,1-.86-.85V15.25a.56.56,0,0,0-.56-.56H11.44a.56.56,0,0,0-.56.56v4.58a.86.86,0,0,1-.86.85H8a.86.86,0,0,1-.86-.85V10.54a.15.15,0,0,1,.3,0v9.29a.56.56,0,0,0,.56.56h2a.56.56,0,0,0,.56-.56V15.25a.87.87,0,0,1,.86-.86h2.72a.87.87,0,0,1,.86.86v4.58a.56.56,0,0,0,.56.56H22.3a.56.56,0,0,0,.56-.56V11.08a.15.15,0,0,1,.15-.15.15.15,0,0,1,.14.15v8.75A.85.85,0,0,1,22.3,20.68Z"/></g></g><g id="_Grupo_4" data-name="&lt;Grupo&gt;"><g id="_Grupo_5" data-name="&lt;Grupo&gt;"><path class="cls-1" d="M2.44,21.3A2.18,2.18,0,0,1,0,19.13a3.68,3.68,0,0,1,1.22-2.44,2.51,2.51,0,0,0,.71-1.85v-.36A.24.24,0,0,1,2,14.35a.21.21,0,0,1,.13,0H3.16a.18.18,0,0,1,.18.16l0,.35a3.23,3.23,0,0,1-.9,2.45A2.79,2.79,0,0,0,1.59,19c0,.64.38,1,1.11,1A2.18,2.18,0,0,0,4,19.57a.16.16,0,0,1,.16,0,.17.17,0,0,1,.12.11l.33.87a.18.18,0,0,1-.07.21A4,4,0,0,1,2.44,21.3Zm-.15-6.64v.16a2.88,2.88,0,0,1-.8,2.1A3.34,3.34,0,0,0,.36,19.13a1.83,1.83,0,0,0,2.08,1.81,3.64,3.64,0,0,0,1.73-.44L4,20a2.66,2.66,0,0,1-1.27.32A1.29,1.29,0,0,1,1.23,19a3.06,3.06,0,0,1,1-1.95A3,3,0,0,0,3,14.85l0-.19Zm.35-1.07a1,1,0,0,1,0-2.05,1,1,0,0,1,1,1A1,1,0,0,1,2.64,13.59Zm0-1.69a.6.6,0,0,0-.61.66.62.62,0,1,0,1.23,0A.6.6,0,0,0,2.64,11.9Z"/></g></g><g id="_Grupo_6" data-name="&lt;Grupo&gt;"><g id="_Grupo_7" data-name="&lt;Grupo&gt;"><path class="cls-1" d="M28.33,20.47a1,1,0,1,1,1-1A1,1,0,0,1,28.33,20.47Zm0-1.69a.67.67,0,1,0,.62.67A.61.61,0,0,0,28.34,18.78Zm.54-1H27.83a.18.18,0,0,1-.18-.17l0-.35a3.25,3.25,0,0,1,.88-2.47A2.87,2.87,0,0,0,29.4,13c0-.62-.39-1-1.1-1a2.24,2.24,0,0,0-1.26.38.18.18,0,0,1-.16,0,.2.2,0,0,1-.11-.11l-.33-.85a.19.19,0,0,1,.06-.21,3.72,3.72,0,0,1,2-.58A2.18,2.18,0,0,1,31,12.86a3.83,3.83,0,0,1-1.2,2.47,2.51,2.51,0,0,0-.73,1.86v.36a.13.13,0,0,1,0,.13A.16.16,0,0,1,28.88,17.74ZM28,17.37h.7v-.16a2.82,2.82,0,0,1,.81-2.11,3.49,3.49,0,0,0,1.12-2.24,1.83,1.83,0,0,0-2.08-1.81,3.55,3.55,0,0,0-1.71.43L27,12a2.76,2.76,0,0,1,1.28-.32A1.3,1.3,0,0,1,29.77,13a3.16,3.16,0,0,1-1,2,2.92,2.92,0,0,0-.8,2.2Z"/></g></g></svg>