<svg viewBox="0 0 68.93 97.88" xmlns="http://www.w3.org/2000/svg" xmlns:xlink="http://www.w3.org/1999/xlink"><linearGradient id="a" gradientUnits="userSpaceOnUse" x1="1.03" x2="67.9" y1="-1.03" y2="65.83"><stop offset="0" stop-color="#4dc2ee"/><stop offset="1" stop-color="#2f88b3"/></linearGradient><path d="m68.93 64.79-34.46 33.09-34.47-33.09v-64.79h68.93z" fill="url(#a)"/><path d="m52.28 51.84h-7.07a3.12 3.12 0 0 1 -2.92-1.57l-8.85-13.48a3 3 0 0 0 -1.09-1.08 3.89 3.89 0 0 0 -1.76-.32h-3.35v16.45h-7.84v-42.11h12.85a26.78 26.78 0 0 1 7.35.89 14 14 0 0 1 5 2.49 9.72 9.72 0 0 1 2.9 3.83 12.6 12.6 0 0 1 .93 4.91 12.72 12.72 0 0 1 -.63 4 11.83 11.83 0 0 1 -1.8 3.45 12.24 12.24 0 0 1 -2.88 2.7 14.58 14.58 0 0 1 -3.94 1.84 7.2 7.2 0 0 1 2.56 2.44zm-20.15-22.07a12.43 12.43 0 0 0 3.87-.55 7.48 7.48 0 0 0 2.71-1.53 6 6 0 0 0 1.58-2.32 8 8 0 0 0 .53-2.94 6 6 0 0 0 -2.11-4.92q-2.12-1.73-6.45-1.72h-5v14z" fill="#fff"/></svg>