<svg id="Capa_1" data-name="Capa 1" xmlns="http://www.w3.org/2000/svg" xmlns:xlink="http://www.w3.org/1999/xlink" viewBox="0 0 68.93 97.88"><defs><style>.cls-1{fill:url(#Degradado_sin_nombre_17);}.cls-2{fill:#fff;}</style><linearGradient id="Degradado_sin_nombre_17" x1="1.03" y1="-1.03" x2="67.9" y2="65.83" gradientUnits="userSpaceOnUse"><stop offset="0" stop-color="#2bcc5a"/><stop offset="1" stop-color="#108220"/></linearGradient></defs><title>banderas</title><polygon class="cls-1" points="68.93 64.79 34.47 97.88 0 64.79 0 0 68.93 0 68.93 64.79"/><path class="cls-2" d="M55,15.48,38,57.59H30.93l-17-42.11h6.29a2.64,2.64,0,0,1,1.66.49,3,3,0,0,1,1,1.28l9.93,25.69c.33.84.65,1.75,1,2.75s.58,2.05.86,3.13c.23-1.08.48-2.13.75-3.13a28.6,28.6,0,0,1,.91-2.75L46.1,17.25A2.81,2.81,0,0,1,47,16a2.55,2.55,0,0,1,1.67-.55Z"/></svg>